<svg width="219" height="278" viewBox="0 0 219 278" fill="none" xmlns="http://www.w3.org/2000/svg">
<g opacity="0.15">
<rect width="162.255" height="123.175" transform="translate(101.424) rotate(30.9916)" fill="#FEFBF7"/>
<path d="M15.3529 276.415C18.531 271.299 21.6835 266.167 24.9045 261.076C27.7878 256.528 30.7104 251.992 33.6878 247.5C35.6402 244.56 37.6577 241.648 39.7848 238.824C42.8888 234.723 46.337 230.923 49.9991 227.308C53.7727 223.587 57.4846 219.793 60.9996 215.822C63.3373 213.172 65.5277 210.398 67.6634 207.58C69.6533 204.965 71.4223 202.194 73.2461 199.468C74.5746 197.47 75.6376 195.312 76.7863 193.206C77.1 192.626 77.2511 191.947 77.409 191.297C78.25 187.724 78.865 184.12 78.4745 180.425C77.6936 173.036 75.597 166.091 71.6399 159.741C68.1484 154.148 64.1582 148.979 59.4003 144.408C57.5239 142.605 55.5498 140.907 53.4025 139.419C52.7433 138.965 52.1526 138.435 51.4745 137.993C47.6988 135.55 43.5956 133.866 39.3003 132.579C37.61 132.077 35.8938 131.675 34.1674 131.291C31.0126 130.607 27.8147 130.655 24.6116 130.712C20.91 130.784 17.2152 131.116 13.5051 131.008C10.989 130.93 8.46422 130.905 5.99972 130.217C4.61419 129.827 3.34356 129.169 2.04377 128.598C1.48891 128.358 1.06428 127.939 0.667103 127.514C0.0679058 126.863 0.301268 126.106 1.1715 125.918C1.53639 125.835 1.9252 125.847 2.30203 125.84C3.94812 125.815 5.57708 125.722 7.20786 125.49C9.97606 125.09 12.6075 124.259 15.2098 123.224C23.4606 119.943 31.9611 117.545 40.7368 116.222C45.6548 115.483 50.624 115.24 55.5721 116.197C58.4631 116.757 61.3301 117.395 64.1011 118.407C66.6973 119.361 69.0554 120.672 71.2059 122.407C75.6474 125.972 79.059 130.339 81.5077 135.457C83.4498 139.536 84.4 143.87 84.7096 148.379C85.0004 152.608 84.7038 156.787 84.1074 160.961C83.3821 166.048 82.2115 171.042 81.4159 176.11C80.9194 179.226 80.6181 182.365 80.334 185.515C80.3184 185.716 80.3338 185.923 80.3541 186.355C81.2626 184.92 81.7994 183.541 82.4475 182.229C83.382 180.344 84.2427 178.426 85.1207 176.518C86.2095 174.143 87.2847 171.771 88.3598 169.399C89.6578 166.521 90.9336 163.64 92.2231 160.756C93.3274 158.297 94.4351 155.852 95.5651 153.408C96.3984 151.613 97.2488 149.829 98.1079 148.05C99.2189 145.734 100.33 143.419 101.458 141.114C102.554 138.883 103.684 136.672 104.783 134.454C105.998 132.004 107.197 129.543 108.421 127.098C109.115 125.709 109.824 124.317 110.526 122.933C111.478 121.058 112.43 119.183 113.373 117.302C113.451 117.152 113.499 116.994 113.589 116.768C113.25 115.994 112.904 115.192 112.56 114.426C112.144 114.188 111.778 114.352 111.409 114.422C104.955 115.683 98.6926 115.032 92.5857 112.611C90.1213 111.632 87.6861 110.565 85.4635 109.125C80.1861 105.711 75.8289 101.404 72.8906 95.7826C71.3539 92.8323 70.5333 89.6597 70.1563 86.369C69.7214 82.5542 69.6273 78.7345 70.179 74.9065C70.3268 73.8651 70.5585 72.8392 70.8776 71.8424C71.044 71.3132 71.3269 70.8424 71.6303 70.3954C72.0142 69.8338 72.2095 69.7996 72.9014 70.0638C73.0452 70.1152 73.1548 70.2626 73.3775 70.1633C73.3571 69.9646 73.3281 69.7608 73.299 69.5569C72.3099 64.2208 72.8982 58.9934 74.492 53.8573C75.4047 50.9219 76.629 48.127 78.0247 45.3768C79.3414 42.7773 80.8585 40.3098 82.504 37.9195C84.8815 34.4657 86.7366 30.7565 87.7304 26.6581C87.8471 26.1923 88.0049 25.7744 88.4075 25.4337C89.1356 25.3467 89.5618 25.8008 89.839 26.3868C90.1282 26.9916 90.3471 27.6357 90.5301 28.2816C91.4467 31.4303 92.3581 34.5875 93.2507 37.7568C94.1176 40.8524 95.2346 43.8419 96.8982 46.6004C97.0095 46.7838 97.107 46.9705 97.2285 47.1367C97.273 47.1984 97.3552 47.2361 97.4272 47.291C97.8298 47.0668 97.9345 46.6403 98.0717 46.2567C98.4199 45.2891 98.9855 44.4638 99.6077 43.6607C100.792 42.1351 101.98 40.6233 103.274 39.1868C104.782 37.5295 106.413 36.0161 108.204 34.7032C112.378 31.6528 116.545 28.5751 120.527 25.2815C121.04 24.8552 121.598 24.4684 122.164 24.109C122.625 23.8266 123.12 23.5647 123.636 23.3851C125.38 22.7899 126.458 23.4961 126.586 25.3204C126.642 26.158 126.621 27.0076 126.588 27.8383C126.515 29.9383 126.54 32.0503 126.655 34.1469C126.774 36.3737 126.763 38.6039 126.565 40.8151C126.839 40.9214 127.005 40.7999 127.159 40.6595C131.503 36.919 136.602 34.89 142.207 34.0157C144.12 33.7203 146.045 33.502 147.971 33.2837C149.06 33.1575 150.151 33.1254 151.244 33.3623C152.552 33.6473 153.022 34.2437 152.946 35.5728C152.887 36.5046 152.604 37.3831 152.211 38.2308C151.873 38.9484 151.553 39.6762 151.206 40.4468C151.766 40.6783 152.26 40.5552 152.734 40.5024C154.115 40.3763 155.492 40.1783 156.878 40.0436C157.424 39.9874 157.974 39.9448 158.514 39.9776C159.927 40.0691 160.742 40.8266 160.969 42.233C161.047 42.7229 161.066 43.235 161.1 43.7215C161.455 43.7713 161.729 43.6447 161.989 43.5215C164.42 42.4419 166.995 42.1125 169.617 41.9751C170.121 41.9513 170.626 41.9636 171.119 42.0734C172.212 42.3103 172.729 42.8073 172.908 43.9054C172.958 44.1915 172.966 44.4878 172.975 44.7841C173.073 50.1095 172.625 55.3747 171.134 60.5143C171.074 60.7112 171.023 60.9133 170.982 61.0983C171.297 61.3691 171.651 61.3025 171.975 61.3454C173.938 61.5691 175.89 61.8681 177.809 62.3794C180.873 63.1945 183.99 63.6106 187.126 63.9564C188.756 64.1319 190.39 64.2629 192.006 64.5805C192.795 64.7402 193.532 65.0078 194.23 65.4158C195.131 65.9335 195.391 66.6839 195.24 67.6533C195.236 67.6978 195.224 67.7372 195.212 67.7766C193.817 72.7758 193.554 77.9657 192.743 83.0594C192.623 83.8027 192.467 84.5478 192.355 85.2962C192.3 85.6593 192.134 86.0138 192.278 86.473C192.824 86.4749 193.362 86.4717 193.894 86.4771C196.087 86.5125 198.25 86.8099 200.419 87.1569C203.529 87.662 206.649 88.15 209.762 88.6328C210.722 88.7789 211.671 88.9643 212.584 89.268C214.415 89.8666 215.044 91.34 214.168 93.0508C212.67 95.9722 211.18 98.8988 209.334 101.623C206.494 105.789 203.145 109.463 198.966 112.347C197.924 113.073 196.803 113.659 195.661 114.184C195.131 114.425 194.605 114.68 194.071 114.93C194.101 115.344 194.437 115.406 194.665 115.531C197.357 117.102 199.852 118.961 202.435 120.711C204.453 122.086 206.454 123.487 208.533 124.759C209.752 125.503 210.865 126.404 211.915 127.372C212.161 127.602 212.392 127.857 212.563 128.135C213.087 128.95 212.975 129.757 212.254 130.396C211.975 130.647 211.658 130.865 211.325 131.05C209.17 132.213 207.259 133.745 205.297 135.188C203.81 136.287 202.306 137.376 200.806 138.456C197.429 140.878 193.708 142.651 189.822 144.057C185.043 145.788 180.121 146.863 175.032 147.092C173.009 147.182 170.991 147.088 168.984 146.861C168.616 146.815 168.249 146.688 167.869 146.797C167.762 147.129 168.036 147.236 168.213 147.388C170.471 149.351 172.488 151.541 174.446 153.789C177.12 156.863 180.074 159.686 182.859 162.652C183.741 163.589 184.47 164.587 184.747 165.871C184.836 166.286 184.906 166.713 184.834 167.124C184.607 168.432 183.976 168.822 183.002 168.796C182.707 168.782 182.416 168.782 182.12 168.732C177.952 168.047 173.732 168.11 169.527 167.973C166.457 167.865 163.383 167.94 160.313 167.658C156.604 167.317 153.046 166.392 149.64 164.847C142.408 161.564 137.325 156.215 134.102 149.013C133.616 147.94 133.204 146.842 132.754 145.768C132.175 145.548 131.627 145.336 131.084 145.114C128.856 144.207 127.07 142.68 125.358 141.069C121.559 137.482 119.046 133.13 117.675 128.101C117.263 126.595 117.051 125.046 117.061 123.479C117.061 122.955 116.962 122.499 116.656 122.059C116.132 121.302 115.654 120.525 115.153 119.77C114.778 119.929 114.683 120.222 114.551 120.48C113.406 122.775 112.278 125.08 111.141 127.38C110.057 129.572 108.979 131.755 107.895 133.947C106.709 136.369 105.527 138.781 104.341 141.203C103.362 143.201 102.361 145.198 101.407 147.212C100.082 149.981 98.7821 152.765 97.491 155.555C96.1552 158.458 94.8366 161.371 93.518 164.284C92.208 167.202 90.9287 170.127 89.6101 173.04C88.5178 175.46 87.405 177.855 86.2871 180.26C85.3097 182.352 84.3101 184.443 83.3105 186.534C82.8235 187.558 82.3142 188.581 81.793 189.584C79.0601 194.91 76.1594 200.146 72.7673 205.076C68.4752 211.329 63.6848 217.19 58.3722 222.621C55.0784 225.99 51.7384 229.32 48.4943 232.743C45.221 236.194 42.1994 239.867 39.5032 243.793C37.5902 246.571 35.7509 249.381 33.8637 252.173C32.0433 254.855 30.4661 257.694 28.5601 260.324C28.3442 260.625 28.1744 260.966 27.8864 261.446C30.9367 258.617 33.8756 255.955 36.5046 252.956C40.6024 248.287 44.6128 243.53 48.9366 239.067C52.7153 235.162 56.7955 231.589 61.2813 228.504C66.4062 224.977 71.9401 222.242 77.7171 219.957C86.2249 216.597 94.8986 213.698 103.777 211.504C110.811 209.764 117.768 207.744 124.765 205.853C126.838 205.293 128.9 204.691 130.966 204.102C132.225 203.752 133.508 203.497 134.812 203.383C135.389 203.334 135.985 203.272 136.549 203.576C136.764 204.148 136.504 204.562 136.199 204.973C135.189 206.324 134.121 207.617 133.007 208.87C130.323 211.884 127.636 214.883 125.154 218.065C123.29 220.451 121.468 222.864 119.654 225.282C116.281 229.792 112.689 234.124 108.36 237.78C106.936 238.987 105.365 239.954 103.707 240.776C98.3852 243.428 92.7165 244.951 86.9144 246.173C80.5522 247.513 74.091 248.048 67.6433 248.754C62.4068 249.325 57.1992 250.1 52.1062 251.48C45.8191 253.179 39.7545 255.42 34.1568 258.804C30.8757 260.795 27.8633 263.133 25.2344 265.958C24.9122 266.3 24.6414 266.673 24.3877 267.057C22.1027 270.59 19.8211 274.136 17.6937 277.775C17.4797 277.646 17.257 277.512 17.043 277.384C17.1887 277.18 17.3515 276.987 17.4801 276.773C21.1159 270.952 24.6833 265.091 28.4047 259.322C31.8056 254.048 35.1757 248.767 38.7513 243.61C42.1452 238.716 45.9466 234.172 50.152 229.964C57.0908 223.028 63.9748 216.048 69.7528 208.077C72.1044 204.841 74.3499 201.53 76.3608 198.065C78.4917 194.382 80.4805 190.625 82.3443 186.804C83.6422 184.159 84.923 181.503 86.1644 178.834C87.567 175.821 88.9216 172.789 90.2814 169.75C91.8676 166.217 93.4143 162.672 95.009 159.144C96.4305 156.002 97.8829 152.866 99.3557 149.755C100.685 146.941 102.07 144.15 103.424 141.351C104.908 138.281 106.386 135.219 107.886 132.159C108.956 129.97 110.099 127.814 111.126 125.6C111.572 124.645 112.095 123.735 112.532 122.775C112.831 122.103 113.175 121.413 112.746 120.654C112.437 120.76 112.381 121.029 112.244 121.238C111.573 122.315 111.076 123.473 110.505 124.598C109.228 127.151 107.894 129.682 106.611 132.244C104.962 135.552 103.333 138.885 101.701 142.204C100.259 145.147 98.7776 148.079 97.3784 151.048C95.5917 154.857 93.8787 158.698 92.1348 162.532C89.856 167.548 87.572 172.573 85.3017 177.594C83.0263 182.624 80.5916 187.569 77.9891 192.426C75.5186 197.024 72.8375 201.506 69.7848 205.755C67.5205 208.904 65.1519 211.955 62.6342 214.905C59.0523 219.103 55.1947 223.043 51.2754 226.91C46.0761 232.036 41.2894 237.503 37.1498 243.521C33.7165 248.52 30.4235 253.614 27.1615 258.715C23.62 264.242 20.1761 269.84 16.6979 275.417C16.4322 275.84 16.2042 276.297 15.9557 276.731C15.781 276.672 15.5669 276.544 15.3529 276.415ZM139.616 104.859C139.914 104.887 140.086 104.757 140.264 104.654C142.322 103.42 144.279 102.044 146.175 100.573C149.998 97.6032 153.203 94.0523 155.658 89.8877C157.024 87.5743 158.038 85.0723 158.964 82.5411C160.516 78.2888 161.556 73.9386 161.702 69.3892C161.871 63.9098 161.506 58.4473 161.027 52.9984C160.741 49.6924 160.23 46.3914 160.264 43.0565C160.265 42.7653 160.234 42.4673 160.171 42.1846C159.947 41.2578 159.455 40.8345 158.498 40.7604C157.866 40.707 157.237 40.7838 156.612 40.8742C154.02 41.2515 151.43 41.4318 148.815 41.4802C146.459 41.5219 144.097 41.5944 141.751 41.6995C136.274 41.952 130.979 43.1639 125.934 45.2597C119.06 48.11 113.339 52.4562 109.181 58.7199C108.155 60.2713 107.303 61.9032 106.623 63.638C106.039 65.1519 105.648 66.6762 106.44 68.2473C106.538 68.4341 106.562 68.6464 106.627 68.8486C109.151 77.099 110.639 85.5425 111.291 94.1364C111.374 95.2001 111.43 96.2707 111.512 97.5314C112.234 96.0775 112.702 94.716 113.501 93.5414C115.127 91.163 117.137 89.1547 119.464 87.4532C120.552 86.6504 121.77 86.3102 123.146 86.3674C125.039 86.4557 126.638 87.1484 128.011 88.4509C129.251 89.6265 130.192 91.0076 131.005 92.4862C131.672 93.7026 132.288 94.9465 132.918 96.1869C134.624 99.4953 136.906 102.369 139.616 104.859ZM144.527 134.606C144.91 134.917 145.263 134.873 145.585 134.938C150.047 135.754 154.258 137.258 158.136 139.646C159.004 140.179 159.76 140.843 160.614 141.379C162.332 142.457 163.866 143.763 165.405 145.061C166.04 145.594 166.722 145.933 167.537 146.05C170.25 146.422 172.973 146.601 175.716 146.419C182.92 145.946 189.682 143.903 196.1 140.627C198.805 139.246 201.232 137.418 203.68 135.65C206.166 133.858 208.543 131.918 211.225 130.383C212.467 129.673 212.508 129.022 211.517 127.996C210.729 127.173 209.819 126.498 208.882 125.865C208.103 125.339 207.258 125.018 206.344 124.795C204.546 124.356 202.72 124.04 200.877 123.888C196.723 123.549 192.772 122.387 188.948 120.859C185.655 119.533 182.723 117.528 180.051 115.189C178.44 113.778 176.799 112.397 174.929 111.32C173.102 110.269 171.309 109.181 169.493 108.113C169.167 107.917 168.821 107.756 168.469 107.626C165.278 106.42 161.96 105.93 158.576 106.134C153.966 106.418 149.522 107.57 145.18 109.098C144.959 109.175 144.674 109.202 144.594 109.55C145.67 110.628 146.778 111.712 147.852 112.835C149.373 114.413 150.752 116.115 151.676 118.126C153.412 121.907 153.236 125.634 151.221 129.26C149.989 131.467 148.082 132.954 145.806 133.988C145.39 134.157 144.922 134.237 144.527 134.606ZM179.383 107.902C179.743 107.826 180.02 107.481 180.332 107.214C182.419 105.368 184.231 103.264 185.83 101.009C188.012 97.9386 189.591 94.553 190.477 90.8673C191.414 86.9795 192.125 83.0608 192.673 79.1026C193.186 75.3208 193.446 71.4927 194.582 67.8174C194.916 66.7367 194.475 66.1336 193.375 65.6946C191.819 65.0857 190.183 64.977 188.556 64.8152C184.705 64.4365 180.891 63.8814 177.125 62.9358C172.927 61.894 168.659 61.5322 164.357 62.2341C163.741 62.3298 163.109 62.3928 162.495 62.7351C162.495 63.9581 162.486 65.1759 162.499 66.3955C162.519 69.6003 162.35 72.7725 161.667 75.9273C160.637 80.7263 158.918 85.2748 156.652 89.6107C155.064 92.6418 152.898 95.2785 150.5 97.7182C147.952 100.312 145.065 102.481 142.015 104.435C141.487 104.771 140.903 105.026 140.397 105.596C141.59 106.732 142.772 107.85 143.927 108.951C155.636 104.356 167.407 104.098 179.383 107.902ZM135.757 204.37C135.468 204.057 135.17 204.146 134.885 204.173C133.839 204.267 132.792 204.418 131.779 204.707C129.467 205.357 127.157 206.021 124.85 206.662C119.695 208.086 114.558 209.579 109.379 210.907C102.729 212.61 96.0853 214.34 89.5838 216.552C87.4715 217.276 85.3403 217.953 83.281 218.801C78.2356 220.897 73.6454 223.767 69.3564 227.145C67.7388 228.422 66.1795 229.757 64.7725 231.266C62.4315 233.786 60.1486 236.364 57.6946 238.782C54.2175 242.204 50.8106 245.703 46.7909 248.497C43.7512 250.609 40.6585 252.654 37.5948 254.729C35.3639 256.232 33.1125 257.711 31.2034 259.628C31.0526 259.782 30.7819 259.864 30.8708 260.162C35.7507 256.849 40.6169 253.538 45.4899 250.255C49.4463 247.587 53.6302 245.335 58.0178 243.461C61.3637 242.022 64.8636 241.084 68.4712 240.606C72.9301 240.01 77.368 240.323 81.8092 240.881C88.0968 241.664 94.4053 241.771 100.673 240.608C103.191 240.14 105.503 239.221 107.533 237.586C110.496 235.195 113.02 232.389 115.478 229.519C117.886 226.713 119.948 223.629 122.229 220.723C123.66 218.903 125.002 217.018 126.492 215.256C128.74 212.599 131.099 210.031 133.399 207.404C134.221 206.442 135.068 205.459 135.757 204.37ZM88.779 25.9597C88.635 26.1412 88.5596 26.1892 88.5356 26.268C88.4344 26.5916 88.3469 26.9119 88.2594 27.2322C87.3997 30.4091 86.1752 33.4369 84.413 36.2349C83.7341 37.3068 82.98 38.3102 82.2926 39.377C79.4694 43.7281 77.0555 48.29 75.4053 53.2291C73.9078 57.7007 73.1501 62.2789 73.5949 67.0083C73.8028 69.1838 74.0724 71.373 74.8542 73.4271C76.2193 77.0317 78.8062 79.669 81.9534 81.7226C85.3353 83.9287 88.8492 85.9345 92.3321 87.9916C93.536 88.7031 94.654 89.5378 95.7156 90.4084C98.2428 92.4856 100.749 94.5971 103.119 96.8593C105.672 99.3014 108.142 101.822 110.141 104.759C110.174 104.802 110.282 104.797 110.41 104.816C110.482 102.622 110.592 100.439 110.609 98.2589C110.629 94.7527 110.328 91.2977 109.531 87.8715C108.641 84.0394 107.089 80.5324 104.739 77.3847C103.253 75.397 101.724 73.4419 100.219 71.4662C95.3922 65.1296 91.7214 58.2643 90.1717 50.3313C89.3942 46.369 88.9731 42.4343 89.5163 38.4264C89.6624 37.3491 89.7383 36.2529 89.8091 35.1653C89.9661 32.8478 89.8405 30.5354 89.6377 28.2349C89.5593 27.4538 89.4603 26.6487 88.779 25.9597ZM126.757 131.097C129.41 132.598 132.102 133.76 135.032 134.274C138.81 134.947 142.507 134.767 145.999 133.008C149.626 131.179 151.662 128.254 152.041 124.171C152.216 122.249 151.632 120.605 150.418 119.153C149.622 118.209 148.672 117.405 147.6 116.843C144.801 115.372 141.818 114.558 138.62 114.781C137.733 114.842 136.861 114.936 135.972 114.962C135.263 114.978 134.54 114.94 133.827 114.885C132.967 114.823 132.437 114.33 132.194 113.531C132.083 113.173 131.995 112.795 131.975 112.421C131.914 111.417 131.844 110.408 131.869 109.398C132.011 104.718 131.311 100.162 129.868 95.7178C129.096 93.3554 128.203 91.0597 126.728 88.9967C125.737 87.6208 124.487 87.1029 122.865 87.1072C121.803 87.1101 120.867 87.4454 120.014 87.9931C116.006 90.5724 113.269 94.1014 111.945 98.7118C110.68 103.125 111.079 107.466 112.407 111.771C113.641 115.751 115.619 119.362 118.046 122.731C120.448 126.084 123.322 128.941 126.757 131.097ZM1.00836 126.752C1.35919 127.371 1.89686 127.775 2.5065 128.06C3.34562 128.448 4.19504 128.818 5.05131 129.158C7.12179 129.959 9.297 130.158 11.4964 130.104C15.4326 130.01 19.2784 129.349 23.0968 128.404C27.3898 127.348 31.7495 126.588 36.1398 126.009C40.8249 125.386 45.4547 125.534 50.0034 126.961C51.6081 127.471 53.182 128.032 54.7301 128.694C56.9153 129.633 58.9461 130.83 60.8262 132.239C63.4271 134.174 65.675 136.503 67.6573 139.08C73.705 146.953 77.1145 155.922 78.5143 165.676C79.5795 173.038 79.6342 180.435 78.8152 187.83C78.8015 187.95 78.8186 188.077 78.8168 188.216C79.1954 188.012 79.2041 187.668 79.2831 187.342C79.4873 186.44 79.5101 185.51 79.6082 184.59C79.9471 181.543 80.2021 178.48 80.7191 175.447C81.5162 170.765 82.5342 166.121 83.2473 161.423C84.0274 156.323 84.292 151.227 83.6915 146.078C83.2702 142.434 82.2973 138.972 80.7333 135.679C78.372 130.707 75.0579 126.468 70.7654 123.004C68.7159 121.354 66.471 120.029 64.0083 119.144C56.8377 116.573 49.4608 115.742 41.9013 116.805C32.843 118.075 24.1198 120.572 15.6086 123.86C13.7241 124.592 11.8601 125.348 9.86101 125.767C7.38393 126.283 4.87953 126.573 2.34105 126.551C1.90256 126.544 1.41961 126.417 1.00836 126.752ZM131.385 134.332C131.308 135.975 131.639 137.537 131.943 139.106C132.753 143.344 133.923 147.449 136.024 151.263C139.414 157.412 144.323 161.886 150.778 164.622C154.292 166.103 157.984 166.9 161.794 167.056C164.397 167.163 167.013 167.173 169.618 167.258C173.823 167.396 178.03 167.336 182.2 168.035C182.404 168.064 182.618 168.077 182.824 168.084C183.773 168.094 184.107 167.771 184.106 166.803C184.106 165.929 183.803 165.153 183.25 164.483C181.658 162.537 179.533 161.342 177.273 160.392C175.499 159.641 173.642 159.085 171.823 158.447C169.373 157.58 166.991 156.522 164.535 155.665C162.009 154.788 159.668 153.604 157.431 152.167C156.757 151.739 156.096 151.307 155.478 150.784C153.147 148.825 151.096 146.614 149.268 144.188C147.337 141.642 145.305 139.186 142.888 137.082C141.725 136.069 140.472 135.362 138.815 135.404C136.53 135.465 134.288 135.085 132.124 134.344C131.928 134.262 131.726 134.21 131.385 134.332ZM112.054 113.562C112.057 113.343 112.086 113.256 112.061 113.182C111.447 111.392 110.966 109.554 110.709 107.675C110.657 107.294 110.57 106.916 110.334 106.611C109.23 105.132 108.138 103.672 106.528 102.647C104.41 101.305 102.103 100.432 99.7432 99.6668C96.5526 98.6358 93.242 97.9405 90.1595 96.555C88.0856 95.6239 86.1095 94.5301 84.3613 93.0373C81.0671 90.2197 78.7445 86.7158 76.9222 82.8249C75.3651 79.5012 74.2088 76.0338 73.104 72.539C72.9176 71.9377 72.7449 71.3329 72.3684 70.7572C71.8988 71.1509 71.6862 71.6407 71.5164 72.1562C71.2573 72.956 71.0685 73.7747 70.9414 74.6071C70.3227 78.7211 70.3995 82.8218 70.9508 86.9278C71.4304 90.5131 72.4702 93.9222 74.3768 97.0132C77.2607 101.716 81.1094 105.473 85.7156 108.473C87.5153 109.647 89.4727 110.52 91.4352 111.384C94.4543 112.72 97.5765 113.651 100.846 114.066C104.587 114.53 108.311 114.402 112.054 113.562ZM190.512 113.037C191.038 112.957 191.29 112.654 191.569 112.402C192.337 111.745 192.988 110.971 193.623 110.187C195.045 108.42 196.488 106.677 198.036 105.031C200.241 102.698 202.762 100.751 205.462 99.0296C208.238 97.2598 210.796 95.2313 213.048 92.8207C213.22 92.6324 213.412 92.468 213.549 92.2591C213.965 91.6238 213.866 90.9352 213.275 90.4639C212.947 90.1965 212.577 89.9976 212.154 89.9066C211.373 89.7521 210.595 89.5531 209.807 89.4293C206.37 88.8676 202.917 88.3314 199.48 87.7697C197.445 87.433 195.405 87.1631 193.338 87.1329C192.885 87.1293 192.406 87.016 191.917 87.4217C191.218 91.3593 190.065 95.2572 188.024 98.831C185.997 102.379 183.283 105.386 180.186 108.291C183.895 109.68 187.243 111.4 190.512 113.037ZM76.5759 167.914C76.7182 167.58 76.5865 167.256 76.5216 166.937C75.8877 163.667 75.2846 160.404 74.5874 157.142C73.5671 152.382 71.889 147.843 69.5821 143.557C67.1315 138.985 63.6767 135.291 59.497 132.279C57.2813 130.692 54.8685 129.394 52.2671 128.449C47.7408 126.791 43.0992 126.042 38.2687 126.519C32.1294 127.119 26.1201 128.356 20.1397 129.797C20.0301 129.824 19.9941 129.884 20.0317 129.977C20.22 130.206 20.4941 130.08 20.7185 130.075C22.1454 130.046 23.5808 130.023 25.0111 129.95C29.636 129.699 34.1542 130.304 38.5968 131.598C42.0752 132.615 45.4712 133.828 48.682 135.523C52.3929 137.473 55.6855 140.021 58.7742 142.832C62.6949 146.41 66.1667 150.406 69.2118 154.764C72.0104 158.775 74.5606 162.928 76.3003 167.538C76.3568 167.677 76.3601 167.866 76.5759 167.914ZM105.411 64.8793C105.584 64.7269 105.682 64.6807 105.701 64.6105C106.564 61.6802 108.065 59.0636 109.757 56.538C110.599 55.2726 111.173 53.87 111.686 52.4537C112.876 49.1724 113.738 45.7984 114.49 42.3936C115.724 36.8667 117.619 31.5972 120.532 26.7289C120.624 26.5748 120.789 26.4172 120.644 26.1551C120.263 26.4393 119.893 26.7063 119.535 26.9922C116.512 29.4641 113.395 31.8212 110.21 34.0789C108.603 35.2224 107.04 36.4275 105.592 37.7714C103.58 39.6272 101.849 41.7331 100.207 43.9043C99.2044 45.2244 98.2479 46.6422 97.9234 48.4046C101.011 53.603 103.545 59.0632 105.411 64.8793ZM141.666 135.276C143.811 136.727 145.484 138.326 146.96 140.098C149.551 143.193 152.376 146.055 155.379 148.756C157.105 150.305 158.899 151.779 160.882 152.958C163.127 154.284 165.497 155.381 167.94 156.3C170.692 157.324 173.454 158.331 176.213 159.324C177.443 159.76 178.621 160.281 179.847 160.761C176.978 157.838 174.293 154.781 171.547 151.768C169.199 149.18 166.536 146.94 163.826 144.741C161.963 143.226 160.03 141.809 158.03 140.503C154.078 137.907 149.68 136.384 145.031 135.608C144.021 135.409 142.992 135.163 141.666 135.276ZM90.57 30.7173C90.2993 30.8576 90.366 31.0375 90.3762 31.1951C90.5753 33.8895 90.3942 36.577 90.1154 39.2523C89.8848 41.479 89.8289 43.7057 90.1499 45.9257C90.9044 51.1093 92.6526 55.9575 95.1837 60.5304C97.0662 63.9331 99.4182 67.0003 101.746 70.0881C103.749 72.7474 105.55 75.53 106.903 78.5916C107.695 80.3956 108.539 82.1723 109.261 84.0157C109.295 83.6868 109.275 83.3717 109.227 83.0633C108.795 80.4852 108.316 77.926 107.698 75.3872C106.605 70.9212 105.292 66.5321 103.754 62.2064C101.994 57.2228 99.624 52.5369 96.9096 48.017C95.0766 44.9586 93.6821 41.7326 92.7331 38.3081C92.1381 36.1564 91.5431 34.0048 90.9429 31.8617C90.8249 31.4762 90.688 31.1027 90.57 30.7173ZM100.188 241.61C96.9831 241.98 93.8449 242.239 90.6761 242.199C87.3515 242.148 84.0423 241.896 80.7263 241.676C73.5958 241.191 66.6617 241.873 59.869 244.375C53.0711 246.886 46.689 250.102 40.7673 254.258C40.5309 254.419 40.1694 254.516 40.1503 254.994C40.5804 254.821 40.9316 254.683 41.2793 254.53C44.8806 252.977 48.5947 251.759 52.3738 250.743C57.9225 249.265 63.5857 248.449 69.283 247.886C75.4411 247.274 81.5769 246.602 87.648 245.321C91.4835 244.502 95.2677 243.536 98.9288 242.135C99.3623 241.976 99.7718 241.779 100.188 241.61ZM125.405 44.6856C125.874 42.0429 126.058 39.4856 126.015 36.9197C125.95 33.3038 125.741 29.6947 125.904 26.0874C125.918 25.7928 125.896 25.4999 125.86 25.2104C125.718 24.0302 125.167 23.6873 124.033 24.1013C123.046 24.4639 122.362 25.195 121.786 26.0375C120.432 28.0203 119.275 30.1214 118.356 32.3306C117.171 35.1957 116.172 38.1379 115.503 41.1728C114.823 44.2831 114.138 47.4019 113.436 50.5104C113.233 51.3907 112.947 52.2556 112.645 53.3209C116.458 49.6109 120.586 46.6959 125.405 44.6856ZM162.427 62.0534C165.113 61.2667 167.72 61.2714 170.274 61.1511C171.823 56.128 172.64 49.5115 172.334 44.6091C172.321 44.4378 172.316 44.2717 172.275 44.1072C172.121 43.2575 171.731 42.86 170.867 42.7259C170.54 42.6693 170.199 42.6742 169.858 42.6792C167.954 42.6885 166.085 42.9874 164.236 43.4267C163.137 43.6865 162.08 44.0885 160.98 44.6396C161.52 50.3934 162.134 56.1215 162.427 62.0534ZM205.748 123.925C205.771 123.868 205.788 123.82 205.819 123.769C204.615 122.999 203.356 122.301 202.212 121.451C199.278 119.257 196.214 117.278 193.051 115.424C191.526 114.531 190.043 113.547 188.472 112.767C186.07 111.569 183.63 110.452 181.152 109.418C176.843 107.611 172.386 106.554 167.748 106.168C167.517 106.145 167.267 106.077 167.013 106.227C167.114 106.311 167.2 106.421 167.31 106.452C169.692 107.16 171.932 108.203 174.142 109.333C176.771 110.679 179.185 112.362 181.475 114.215C183.493 115.858 185.567 117.43 187.776 118.815C191.588 121.198 195.717 122.606 200.178 123.072C201.845 123.246 203.517 123.47 205.147 123.878C205.335 123.933 205.548 123.909 205.748 123.925ZM75.1391 75.7653C75.007 76.1986 75.0908 76.3888 75.161 76.5824C76.4371 80.1218 78.0301 83.5021 80.1919 86.5949C81.6041 88.6082 83.3898 90.2517 85.4789 91.5648C87.5508 92.8676 89.7085 93.9888 91.9759 94.908C93.995 95.7363 95.9746 96.6691 97.9937 97.4974C100.604 98.5641 103.21 99.6171 105.643 101.055C105.815 101.158 105.996 101.419 106.329 101.176C106.031 100.857 105.758 100.554 105.464 100.248C103.017 97.7071 100.41 95.3369 97.739 93.0335C95.2187 90.8672 92.5732 88.8705 89.6673 87.2298C87.2853 85.8806 84.9753 84.4116 82.6191 83.0195C81.0557 82.0921 79.6808 80.9284 78.3659 79.6842C77.1623 78.5651 76.1404 77.2988 75.1391 75.7653ZM149.768 116.491C149.412 115.706 148.885 115.11 148.363 114.505C146.072 111.859 143.509 109.493 140.921 107.169C136.832 103.501 133.359 99.4108 131.098 94.3481C130.553 93.1231 129.873 91.9461 129.07 90.858C128.904 90.6301 128.822 90.3012 128.385 90.3301C128.473 90.534 128.556 90.7242 128.645 90.9058C131.243 96.2992 132.636 101.971 132.614 107.982C132.614 109.205 132.605 110.423 132.662 111.646C132.701 112.473 132.733 113.331 133.3 113.998C133.997 114.253 134.672 114.274 135.342 114.245C136.304 114.194 137.277 114.126 138.24 114.017C140.491 113.761 142.694 113.954 144.86 114.556C146.562 115.02 148.23 115.579 149.768 116.491ZM36.3618 254.28C36.3806 254.326 36.408 254.377 36.4268 254.424C36.8432 254.138 37.251 253.847 37.6674 253.561C45.2563 248.297 52.1056 242.17 58.6725 235.699C63.5702 230.881 68.7333 226.398 74.4613 222.603C74.6361 222.487 74.9667 222.441 74.9155 222.06C74.7031 222.142 74.5094 222.213 74.3193 222.296C66.1129 225.814 58.8137 230.692 52.3428 236.849C49.6884 239.367 47.2188 242.043 44.8023 244.786C41.9985 247.96 39.1827 251.116 36.3618 254.28ZM130.725 133.9C130.158 133.641 129.641 133.261 129.086 133.195C127.568 133.006 126.318 132.255 125.029 131.551C122.429 130.117 120.071 128.398 118.375 125.888C118.274 125.746 118.185 125.622 117.971 125.727C117.971 125.843 117.943 125.967 117.966 126.085C118 126.338 118.039 126.583 118.092 126.825C119.082 131.404 121.181 135.415 124.232 138.948C125.716 140.667 127.468 142.115 129.295 143.457C130.202 144.119 131.213 144.609 132.504 144.884C131.678 141.196 130.591 137.653 130.725 133.9ZM191.382 113.431C192.904 114.66 192.99 114.654 194.501 114C197.513 112.71 200.111 110.81 202.52 108.622C204.573 106.756 206.35 104.631 207.984 102.397C208.901 101.142 209.797 99.8625 210.56 98.5148C211.162 97.4548 211.69 96.3623 212.283 95.2971C212.485 94.941 212.715 94.5779 212.618 94.1C212.242 94.2009 212.122 94.5366 211.908 94.7574C209.816 96.8444 207.443 98.5647 204.975 100.17C201.749 102.263 198.976 104.862 196.479 107.778C194.844 109.685 193.415 111.774 191.382 113.431ZM147.533 34.2444C147.282 34.1398 147.21 34.085 147.138 34.0883C143.279 34.4616 139.447 35.0027 135.777 36.3404C132.582 37.5087 129.738 39.2956 127.085 41.384C126.837 41.5843 126.501 41.7554 126.466 42.1425C126.399 42.8362 126.18 43.5315 126.273 44.2869C126.503 44.2151 126.659 44.1689 126.82 44.1142C130.673 42.7235 134.598 41.6206 138.697 41.2167C139.315 41.157 139.699 40.8283 140.021 40.3694C140.338 39.9191 140.604 39.4379 140.95 39.0167C142.702 36.9347 144.784 35.2725 147.533 34.2444ZM150.182 40.6587C150.557 40.0337 150.895 39.5491 151.15 39.0268C151.658 37.9685 152.148 36.8999 152.276 35.7181C152.406 34.55 151.853 33.9964 150.665 34.0746C150.336 34.0984 149.992 34.148 149.671 34.2352C147.148 34.8865 144.871 36.0005 142.999 37.8358C142.088 38.7329 141.191 39.6626 140.598 41.0189C143.856 40.7738 146.996 40.7839 150.182 40.6587Z" fill="#98958B"/>
<path d="M156.196 43.642C154.636 45.3267 152.866 46.6637 151.096 48.0006C147.284 50.8952 143.406 53.7041 139.626 56.6416C135.15 60.1165 130.936 63.9119 127.068 68.0432C125.12 70.1234 123.296 72.3253 121.74 74.7226C121.145 75.6352 120.444 76.4725 119.87 77.4092C117.811 80.798 116.259 84.4097 115.022 88.1757C114.731 89.0491 114.444 89.914 114.113 90.8919C113.865 90.2768 114.086 89.7922 114.212 89.3315C114.85 86.8138 115.702 84.3666 116.76 81.9845C118.022 79.1657 119.632 76.544 121.377 74.027C124.761 69.1503 128.925 64.9524 133.36 61.0218C137.39 57.4541 141.701 54.2531 146.066 51.119C149.338 48.7739 152.632 46.4529 155.762 43.9176C155.893 43.7978 156.05 43.7293 156.196 43.642Z" fill="#98958B"/>
<path d="M111.097 97.9695C111.032 96.7773 110.923 95.5817 110.926 94.3947C110.933 90.0183 111.827 85.8136 113.371 81.7308C114.328 79.2065 115.466 76.7679 116.918 74.5059C120.055 69.6326 123.48 64.9787 127.836 61.0823C129.15 59.9028 130.583 58.8757 132.024 57.8538C133.532 56.7789 135.034 55.7125 136.558 54.6701C136.969 54.3928 137.366 54.0607 138.132 53.8333C136.914 54.7559 135.92 55.4988 134.933 56.2691C132.579 58.0939 130.118 59.7851 127.931 61.8155C126.204 63.411 124.691 65.1934 123.164 66.9792C121.794 68.5801 120.557 70.2718 119.379 71.9995C117.922 74.1536 116.554 76.3728 115.426 78.736C114.286 81.1386 113.37 83.5945 112.706 86.1549C111.841 89.5151 111.567 92.939 111.421 96.3818C111.402 96.918 111.45 97.4593 111.097 97.9695Z" fill="#98958B"/>
<path d="M88.2133 26.7849C88.2801 30.3785 88.1757 33.8111 87.6602 37.2297C86.7322 43.3717 85.2973 49.4071 83.5764 55.3757C82.3976 59.4911 81.4655 63.6615 81.0232 67.9281C80.7255 70.7902 80.868 73.637 81.3839 76.4635C81.4334 76.7496 81.4693 77.0391 81.5051 77.3286C81.5119 77.356 81.4777 77.3937 81.3714 77.6095C81.2705 77.2343 81.1952 76.991 81.1337 76.7443C80.1492 72.3315 80.1856 67.926 80.9826 63.4763C81.7314 59.3007 82.9324 55.2452 84.0067 51.1485C85.6112 45.0634 86.9998 38.9303 87.5322 32.6323C87.6717 31.0034 87.7582 29.366 87.8892 27.7319C87.9184 27.4699 87.8089 27.1478 88.2133 26.7849Z" fill="#98958B"/>
<path d="M132.1 140.493C131.862 139.745 131.621 138.982 131.39 138.261C127.461 137.858 124.62 135.663 121.996 133.049C124.821 135.329 127.73 137.449 131.556 137.79C132.263 139.426 132.968 141.085 133.7 142.736C136.157 148.267 139.666 153.054 144.181 157.059C146.118 158.782 148.296 160.218 150.625 161.442C153.775 163.102 157.069 164.253 160.534 164.982C160.604 165.001 160.66 165.082 160.821 165.202C159.83 165.165 158.978 164.934 158.125 164.724C157.228 164.511 156.329 164.321 155.44 164.055C152.236 163.086 149.266 161.628 146.539 159.71C142.554 156.897 139.306 153.362 136.605 149.305C134.997 146.882 133.626 144.334 132.615 141.595C132.466 141.203 132.266 140.838 132.089 140.452L132.1 140.493Z" fill="#98958B"/>
<path d="M145.33 45.8068C144.085 46.2704 142.834 46.7426 141.58 47.201C136.249 49.1716 131.319 51.8499 126.922 55.4654C124.912 57.1242 123.115 58.992 121.416 60.9661C119.791 62.8564 118.37 64.8923 117.057 66.9813C114.589 70.9163 112.795 75.1634 112.161 79.8273C112.128 80.0756 112.082 80.3274 112.027 80.574C112.008 80.6442 111.924 80.687 111.856 80.7624C111.633 80.5122 111.744 80.2296 111.774 79.9676C112.168 76.5574 113.156 73.3411 114.663 70.2501C115.378 68.7688 116.144 67.3184 117.03 65.9399C122.452 57.4758 129.718 51.2376 139.154 47.6315C140.211 47.2295 141.286 46.8377 142.367 46.4734C143.319 46.1484 144.29 45.8697 145.255 45.5636C145.275 45.6458 145.301 45.7195 145.33 45.8068Z" fill="#98958B"/>
<path d="M178.509 75.9539C177.947 76.6765 177.414 77.4282 176.811 78.1028C176.384 78.5805 176.057 79.1062 175.707 79.6301C174.375 81.6147 172.937 83.5239 171.448 85.4022C169.466 87.9055 167.389 90.3162 165.233 92.6446C161.425 96.7537 157.301 100.498 152.402 103.299C150.471 104.4 148.496 105.439 146.363 106.255C146.392 105.818 146.738 105.804 146.954 105.678C148.669 104.704 150.417 103.773 152.116 102.766C156.67 100.073 160.619 96.642 164.223 92.7949C166.367 90.5058 168.432 88.1345 170.471 85.7477C171.559 84.479 172.506 83.0783 173.548 81.7702C174.878 80.0991 175.98 78.2446 177.462 76.6883C177.759 76.3887 178.071 76.1216 178.509 75.9539Z" fill="#98958B"/>
<path d="M157.912 40.3969C157.658 40.8387 157.28 41.0423 156.981 41.306C152.555 45.1835 147.581 48.2077 142.357 50.8721C139.214 52.479 136.123 54.2109 133.105 56.0336C129.853 57.995 126.997 60.4619 124.305 63.1207C123.708 63.7062 123.129 64.302 122.517 64.9132C122.562 64.2178 123.158 63.9235 123.53 63.5177C126.385 60.4325 129.388 57.5289 133.034 55.3382C136.065 53.512 139.118 51.7458 142.274 50.1578C147.355 47.5944 152.158 44.5838 156.665 41.1157C156.927 40.912 157.198 40.7134 157.485 40.5251C157.575 40.4738 157.701 40.4567 157.912 40.3969Z" fill="#98958B"/>
<path d="M147.934 40.9284C146.716 41.6763 145.418 42.0148 144.104 42.3208C140.003 43.2711 135.963 44.41 132.069 46.0439C127.614 47.9122 123.816 50.6869 120.551 54.2018C119.021 55.8574 117.577 57.6004 116.038 59.3674C116.321 58.6053 116.702 57.9717 117.153 57.4153C118.724 55.4582 120.313 53.5114 122.099 51.7412C125.136 48.7417 128.703 46.5852 132.647 45.0044C136.447 43.4887 140.368 42.3721 144.395 41.6221C145.181 41.4769 145.954 41.2768 146.737 41.1179C147.127 41.0496 147.53 41.0001 147.934 40.9284Z" fill="#98958B"/>
<path d="M95.9106 90.6649C95.212 90.1986 94.7703 89.712 94.3252 89.2116C92.0329 86.6463 90.6316 83.6258 89.763 80.3195C88.6774 76.1721 88.3009 71.9497 88.5599 67.6779C88.9311 61.5511 89.3195 55.4347 89.713 49.3096C89.7338 48.9842 89.6619 48.6381 89.9276 48.2734C90.1074 48.4979 90.0627 48.7274 90.0592 48.9466C89.9402 54.2462 89.7732 59.5287 89.3595 64.8144C89.0648 68.5055 88.9397 72.2053 89.474 75.8933C89.9964 79.5043 90.8871 82.987 92.7046 86.1876C93.5688 87.7553 94.7792 89.0765 95.9106 90.6649Z" fill="#98958B"/>
<path d="M133.716 92.239C133.987 91.8075 134.309 91.8145 134.566 91.7359C140.762 89.9935 146.059 86.685 150.769 82.3726C152.564 80.724 154.216 78.9434 155.712 77.0343C158.704 73.216 160.735 68.9245 161.835 64.2026C161.886 64.0005 161.898 63.7864 162.109 63.6684C162.318 63.8055 162.27 64.0213 162.229 64.2063C161.775 66.4739 161.118 68.6541 160.139 70.769C157.103 77.357 152.301 82.3836 146.506 86.5808C143.596 88.6896 140.44 90.3359 137.043 91.511C136.012 91.8702 134.953 92.1197 133.716 92.239Z" fill="#98958B"/>
<path d="M101.039 54.9131C100.731 54.3785 100.805 54.0034 100.819 53.6506C100.962 50.9871 101.628 48.4627 102.688 46.0001C103.763 43.5118 105.206 41.2447 106.684 38.9981C108.252 36.6197 110.155 34.5 112.239 32.5244C113.993 30.8638 119.651 26.2349 121.368 25.0641C121.142 25.6155 120.698 25.85 120.374 26.1565C117.943 28.4009 115.347 30.4533 112.956 32.7457C110.677 34.9302 108.656 37.305 106.906 39.9471C105.744 41.7074 104.698 43.5259 103.743 45.3874C102.672 47.4817 101.9 49.6978 101.522 52.034C101.371 52.9452 101.221 53.8341 101.039 54.9131Z" fill="#98958B"/>
<path d="M155.064 60.2285C154.683 61.3863 153.866 62.0488 153.264 62.8175C150.366 66.4594 147.175 69.8322 143.996 73.2239C141.096 76.3057 138.179 79.3772 134.989 82.1676C132.735 84.1346 130.381 85.9594 127.676 87.2821C127.144 87.5456 126.612 87.8896 125.896 87.8208C126.069 87.4355 126.341 87.3311 126.593 87.2028C131.029 84.8806 134.785 81.6725 138.322 78.1696C142.528 74.0197 146.565 69.7223 150.605 65.4027C152.114 63.7813 153.508 62.0434 155.064 60.2285Z" fill="#98958B"/>
<path d="M143.463 135.155C144.876 134.431 146.418 134.366 147.952 134.449C150.893 134.596 153.781 135.143 156.655 135.75C163.369 137.162 170.136 138.057 177.01 138.038C179.366 138.033 181.711 137.95 184.067 137.908C184.479 137.9 184.899 137.802 185.447 138.015C185.147 138.243 184.892 138.241 184.635 138.261C175.454 138.863 166.34 138.48 157.328 136.492C155.61 136.113 153.88 135.773 152.14 135.508C149.273 135.044 146.4 134.647 143.463 135.155Z" fill="#98958B"/>
<path d="M158.974 120.657C160.806 119.858 162.777 119.679 164.723 119.427C171.9 118.495 178.985 119.173 186.019 120.672C189.1 121.323 192.183 121.951 195.283 122.474C195.495 122.508 195.817 122.398 195.961 122.741C195.02 122.91 194.116 122.728 193.207 122.613C190.581 122.271 187.993 121.73 185.403 121.211C179.118 119.941 172.775 119.289 166.36 119.805C164.142 119.987 161.934 120.327 159.714 120.589C159.476 120.598 159.228 120.623 158.974 120.657Z" fill="#98958B"/>
<path d="M87.1674 49.6101C86.6678 52.013 86.158 54.3748 85.6875 56.7487C85.0487 59.9651 84.5436 63.192 84.2765 66.4686C84.0077 69.7092 84.0883 72.95 84.7325 76.1448C85.4485 79.6857 86.6219 83.0469 89.1111 85.7887C89.2224 85.9138 89.3045 86.068 89.3832 86.2085C89.4226 86.2788 89.4294 86.3644 89.4499 86.4466C88.5576 86.2252 88.0698 85.5244 87.5854 84.8373C86.1938 82.848 85.2802 80.6448 84.627 78.3184C83.4796 74.2155 83.3155 70.0274 83.7235 65.7985C84.2383 60.4803 85.4552 55.2926 86.7818 50.1358C86.8333 49.9337 86.9036 49.7196 87.1674 49.6101Z" fill="#98958B"/>
<path d="M155.28 106.345C155.946 105.778 156.618 105.552 157.267 105.267C163.084 102.76 168.135 99.1415 172.574 94.6422C174.484 92.7025 176.503 90.8741 178.284 88.8212C179.706 87.1707 181.112 85.5099 182.407 83.76C183.038 82.9038 183.662 82.0203 184.611 81.2739C184.349 82.0018 183.725 82.3029 183.439 82.8766C183.158 83.4417 182.753 83.9211 182.361 84.4194C181.456 85.5769 180.59 86.7463 179.66 87.8883C177.774 90.193 175.714 92.3228 173.603 94.4218C170.933 97.0823 168.188 99.6742 165.028 101.773C162.318 103.57 159.444 105.036 156.416 106.2C156.109 106.342 155.79 106.465 155.28 106.345Z" fill="#98958B"/>
<path d="M140.031 82.54C140.614 82.0162 141.188 81.4871 141.788 80.9736C144.757 78.4348 147.486 75.6579 150.022 72.6958C152.874 69.364 155.378 65.7767 157.4 61.8877C159.004 58.8087 160.412 55.6115 161.244 52.2084C161.303 51.9755 161.401 51.7546 161.519 51.4412C161.822 51.8096 161.707 52.1367 161.649 52.4279C161.293 54.2416 160.648 55.9747 159.986 57.6976C158.544 61.4566 156.435 64.8505 154.241 68.193C152.652 70.6057 150.753 72.7972 148.791 74.9391C146.32 77.6374 143.605 80.0615 140.722 82.3023C140.545 82.4409 140.331 82.5453 140.134 82.66C140.105 82.6308 140.064 82.5829 140.031 82.54Z" fill="#98958B"/>
<path d="M129.487 90.3975C129.626 89.9916 130.007 90.0346 130.3 89.9542C135.548 88.5505 140.444 86.3536 144.98 83.3805C148.264 81.229 151.153 78.6303 153.659 75.6031C155.729 73.1068 157.688 70.5435 159.257 67.6992C159.314 67.605 159.422 67.5417 159.715 67.2866C155.561 75.1724 149.986 81.3309 142.423 85.6197C137.127 88.6369 131.484 90.6999 129.487 90.3975Z" fill="#98958B"/>
<path d="M190.345 69.9448C189.584 70.8625 188.813 71.6226 188.168 72.4822C187.26 73.6842 186.334 74.8759 185.476 76.131C183.976 78.3176 182.536 80.5402 181.024 82.708C179.775 84.4974 178.499 86.2713 177.144 87.9852C174.04 91.9113 170.628 95.5358 166.534 98.4714C166.059 98.8155 165.588 99.1733 165.114 99.5173C164.977 99.6097 164.827 99.6833 164.622 99.7929C164.632 99.4263 164.896 99.3168 165.088 99.1524C167.393 97.2745 169.752 95.4412 171.785 93.26C173.295 91.6386 174.81 90.0087 176.152 88.24C177.269 86.7674 178.462 85.3634 179.571 83.8858C180.296 82.9115 181.014 81.9098 181.662 80.8892C182.79 79.1084 184.024 77.403 185.198 75.6616C186.463 73.7883 187.84 71.9819 189.505 70.4308C189.66 70.2904 189.826 70.1689 189.992 70.0474C190.054 70.0029 190.148 70.0012 190.345 69.9448Z" fill="#98958B"/>
<path d="M77.1272 76.5864C76.8295 75.86 76.5455 75.1884 76.3266 74.486C75.4355 71.7021 75.4952 68.8485 75.6901 65.9829C76.0197 61.0894 77.2912 56.4122 78.8984 51.7967C80.0562 48.4726 81.3442 45.2034 82.7537 41.9838C82.9389 41.5591 82.9888 41.0881 83.2647 40.7063C83.3847 40.5453 83.4756 40.3552 83.6863 40.2371C82.3965 43.7616 81.0759 47.2792 79.8341 50.8209C77.9096 56.2943 76.3807 61.8655 76.1517 67.7166C76.0442 70.5531 76.2038 73.352 77.2234 76.0383C77.2679 76.1582 77.2849 76.285 77.3072 76.4032C77.302 76.4117 77.2592 76.4443 77.1272 76.5864Z" fill="#98958B"/>
<path d="M182.783 133.024C182.303 133.202 181.81 133.15 181.325 133.162C172.409 133.399 163.501 133.082 154.622 132.21C152.496 132.006 150.376 131.734 148.228 132.052C148.187 131.596 148.55 131.651 148.747 131.594C149.812 131.256 150.909 131.273 152 131.358C154.346 131.544 156.696 131.744 159.038 131.939C166.584 132.545 174.143 132.821 181.719 132.816C182.055 132.82 182.384 132.854 182.718 132.88C182.736 132.868 182.754 132.937 182.783 133.024Z" fill="#98958B"/>
<path d="M194.169 71.4139C193.132 76.1855 191.264 80.6329 188.789 84.8317C185.667 90.1452 181.529 94.5915 176.799 98.7412C176.907 97.9208 177.461 97.659 177.826 97.2841C180.019 95.0481 182.189 92.7745 184.194 90.3672C185.785 88.4564 187.06 86.333 188.353 84.22C190.603 80.5503 192.161 76.5807 193.432 72.4858C193.504 72.2494 193.59 72.0097 193.684 71.7751C193.749 71.6278 193.854 71.4925 193.936 71.3555C194.015 71.3796 194.09 71.3899 194.169 71.4139Z" fill="#98958B"/>
<path d="M139.118 143.94C139.717 144.067 139.847 144.471 140.072 144.757C142.175 147.442 144.62 149.773 147.238 151.951C150.39 154.579 153.877 156.708 157.485 158.595C161.911 160.905 166.587 162.665 171.473 163.782C171.751 163.844 172.057 163.818 172.34 164.163C170.663 164.006 169.09 163.656 167.573 163.175C164.528 162.232 161.581 161.067 158.678 159.732C155.608 158.307 152.738 156.548 149.948 154.674C146.073 152.067 142.653 148.917 139.883 145.11C139.631 144.772 139.426 144.416 139.118 143.94Z" fill="#98958B"/>
<path d="M146.253 57.2084C145.696 58.3883 144.756 59.2922 143.874 60.2185C141.096 63.117 138.239 65.9333 135.478 68.8422C133.172 71.2665 130.949 73.7645 128.746 76.2865C127.37 77.8599 126.027 79.4762 124.774 81.1354C123.78 82.4607 122.737 83.7688 121.819 85.1627C122.755 83.4297 123.711 81.7207 124.901 80.1283C129.028 74.6148 133.779 69.6738 138.625 64.8253C140.664 62.7879 142.82 60.8671 144.789 58.7527C145.278 58.2305 145.761 57.7169 146.253 57.2084Z" fill="#98958B"/>
<path d="M142.843 108.545C142.951 108.132 143.158 108.059 143.362 108.03C145.711 107.728 147.78 106.687 149.79 105.553C154.62 102.826 159.226 99.7556 163.178 95.8145C164.926 94.0682 166.514 92.1797 168.115 90.31C168.499 89.8648 168.991 89.5311 169.299 89.0173C169.078 90.0844 168.247 90.7502 167.631 91.5225C166.202 93.3203 164.759 95.1215 163.09 96.7171C158.499 101.102 153.309 104.602 147.583 107.326C146.122 108.033 144.587 108.532 142.843 108.545Z" fill="#98958B"/>
<path d="M99.1963 93.3027C98.907 92.8144 98.5989 92.3381 98.3285 91.8378C96.3023 88.0925 95.0401 84.0837 94.4598 79.8903C93.8061 75.1402 93.4059 70.3559 93.2575 65.5598C93.1916 63.5745 93.4152 61.6117 93.5138 59.6436C93.5173 59.4826 93.5397 59.3096 93.7693 59.1796C93.9213 60.0515 93.8061 60.9027 93.7629 61.7506C93.5758 66.1354 94.0361 70.4898 94.4383 74.8441C94.6342 76.9425 94.849 79.0289 95.2214 81.1051C95.8979 84.8087 97.0472 88.3652 98.6934 91.754C98.8987 92.1686 99.0904 92.5867 99.2769 93.0133C99.3077 93.0784 99.2974 93.1538 99.3093 93.2308C99.2819 93.2377 99.2391 93.2702 99.1963 93.3027Z" fill="#98958B"/>
<path d="M167.773 158.111C152.663 154.849 141.596 141.735 139.125 135.684C139.487 135.586 139.516 135.907 139.631 136.104C142.345 140.624 145.753 144.57 149.645 148.119C152.624 150.841 155.977 152.959 159.501 154.832C161.347 155.812 163.371 156.399 165.337 157.102C166.113 157.382 166.944 157.531 167.773 158.111Z" fill="#98958B"/>
<path d="M167.052 83.0997C167.481 81.9009 168.405 81.0227 169.237 80.1015C171.707 77.3673 174.211 74.6536 177.091 72.3409C180.674 69.4599 184.624 67.2881 189.076 66.0827C190.284 65.7596 191.445 65.2223 192.812 65.1579C192.673 65.622 192.302 65.6201 192.026 65.7107C190.194 66.335 188.329 66.8805 186.532 67.5837C181.64 69.4809 177.449 72.4627 173.725 76.1213C171.611 78.2065 169.575 80.3741 167.501 82.5073C167.326 82.6819 167.201 82.9097 167.052 83.0997Z" fill="#98958B"/>
<path d="M160.604 42.491C160.29 43.5374 159.977 44.5616 159.383 45.4742C159 46.0718 158.639 46.6934 158.285 47.3202C157.019 49.5069 155.599 51.5788 153.997 53.529C152.571 55.2823 151.263 57.1298 149.811 58.8677C147.99 61.0473 146.087 63.1669 144.11 65.218C142.716 66.6647 141.337 68.108 139.815 69.4775C139.772 69.0441 140.079 68.8439 140.304 68.6059C142.718 66.1183 145.071 63.5587 147.344 60.9391C148.711 59.3605 149.928 57.6448 151.267 56.037C152.96 54.0132 154.544 51.9003 156.111 49.7771C157.202 48.2891 158.073 46.6452 159.039 45.0578C159.57 44.2119 160.084 43.3557 160.604 42.491Z" fill="#98958B"/>
<path d="M203.699 135.871C200.017 138.122 195.916 139.13 191.784 140.016C185.247 141.413 174.767 141.306 170.397 139.834C170.604 139.586 170.873 139.7 171.113 139.728C172.785 139.893 174.449 140.089 176.126 140.246C185.19 141.1 193.911 139.674 202.364 136.386C202.803 136.218 203.247 136.042 203.699 135.871Z" fill="#98958B"/>
<path d="M180.231 68.18C179.748 68.8101 179.225 69.0788 178.752 69.4006C175.058 71.9818 171.715 74.9486 168.839 78.4175C167.501 80.0252 166.263 81.717 165.097 83.4635C163.603 85.6998 162.168 87.9721 160.754 90.2684C160.226 91.128 159.393 91.7579 158.954 92.7991C158.812 92.3177 159.091 92.1243 159.23 91.8932C160.747 89.3674 162.23 86.8211 163.811 84.345C167.777 78.1292 172.591 72.7137 178.941 68.8149C179.294 68.5958 179.616 68.3116 180.231 68.18Z" fill="#98958B"/>
<path d="M103.2 92.1074C102.943 90.7884 102.93 89.4523 102.84 88.1282C102.563 83.8373 101.851 79.6113 100.688 75.4759C99.8656 72.5584 98.6611 69.7727 97.5388 66.9665C97.1932 66.1065 96.8425 65.255 96.5158 64.383C96.3533 63.9358 96.2233 63.4733 96.0557 62.9182C96.2715 63.0245 96.3776 63.0417 96.3965 63.088C97.6626 66.0621 99.0023 69.0107 100.171 72.031C102.307 77.5321 103.288 83.2707 103.432 89.1597C103.452 89.999 103.437 90.84 103.435 91.6776C103.431 91.8386 103.462 92.0202 103.2 92.1074Z" fill="#98958B"/>
<path d="M133.462 63.3547C131.234 65.8613 129.06 68.3541 127.04 70.9619C126.198 72.0526 125.326 73.1364 124.631 74.3505C124.021 75.4053 123.368 76.4344 122.612 77.4018C121.932 78.2631 121.577 79.3198 121.019 80.2667C119.382 83.0699 118.153 86.048 117.183 89.1359C117.075 89.4904 116.897 89.826 116.736 90.1719C116.714 90.2285 116.592 90.237 116.417 90.2951C116.291 89.3221 116.714 88.4813 117.006 87.6661C118.265 84.193 119.75 80.8091 121.757 77.6807C124.407 73.5402 127.273 69.5643 130.726 66.046C131.628 65.1078 132.42 64.0804 133.462 63.3547Z" fill="#98958B"/>
<path d="M180.007 65.0044C175.651 67.2119 171.586 69.7913 168.158 73.325C164.736 76.8501 161.99 80.8398 159.894 85.2786C162.331 76.8387 171.571 67.4292 180.007 65.0044Z" fill="#98958B"/>
<path d="M135.645 96.6127C140.95 95.4419 145.79 93.2809 149.969 89.8144C154.125 86.3684 157.439 82.266 159.563 77.1797C159.56 77.9009 159.317 78.7914 158.871 79.6305C155.943 85.1651 151.886 89.6492 146.549 92.9678C143.58 94.8077 140.381 96.0206 136.97 96.7332C136.77 96.776 136.558 96.7998 136.349 96.8374C136.145 96.8664 135.937 96.8817 135.739 96.9022C135.701 96.8097 135.677 96.7138 135.645 96.6127Z" fill="#98958B"/>
<path d="M73.2256 72.2389C73.725 73.8321 73.791 75.4679 73.7217 77.1157C73.5606 80.8172 73.3961 84.5049 73.5621 88.2048C73.7011 91.2127 74.1553 94.1419 75.2587 96.9601C76.0217 98.9097 77.2525 100.546 78.4901 102.21C78.091 102.215 77.9541 101.9 77.7384 101.677C74.9547 98.7465 73.6546 95.1694 73.1889 91.2313C72.8239 88.1342 72.8322 85.0168 72.9382 81.9114C73.0666 78.6912 73.5477 75.485 73.2256 72.2389Z" fill="#98958B"/>
<path d="M151.376 117.771C152.039 117.074 152.907 116.792 153.783 116.537C161.672 114.285 169.587 114.006 177.536 116.194C179.027 116.601 180.502 117.055 181.987 117.493C182.232 117.57 182.463 117.651 182.634 117.87C180.368 117.336 178.107 116.794 175.85 116.265C170.5 115.009 165.113 115.035 159.708 115.809C156.995 116.194 154.334 116.822 151.742 117.723C151.628 117.759 151.502 117.754 151.376 117.771Z" fill="#98958B"/>
<path d="M170.156 128.364C172.667 128.451 175.183 128.587 177.708 128.613C183.048 128.663 188.371 128.26 193.698 127.964C197.504 127.757 201.32 127.591 205.157 127.507C204.804 127.785 204.371 127.769 203.97 127.796C198.811 128.123 193.655 128.404 188.495 128.789C182.993 129.201 177.5 129.152 172.011 128.767C171.382 128.728 170.753 128.746 170.156 128.364Z" fill="#98958B"/>
<path d="M82.8801 50.4252C82.3155 52.626 81.7629 54.7292 81.2189 56.8375C80.2133 60.7423 79.4679 64.6987 79.1559 68.729C78.8922 72.194 79.1286 75.6216 80.1736 78.9639C80.2163 79.1061 80.3173 79.2483 80.1322 79.4983C79.6035 78.4001 79.2957 77.2832 79.0376 76.1611C78.2154 72.6613 78.4432 69.1397 78.8766 65.6251C79.4853 60.6546 80.9042 55.8678 82.3573 51.1016C82.4054 50.944 82.4928 50.7985 82.5803 50.6529C82.6214 50.5844 82.7087 50.5553 82.8801 50.4252Z" fill="#98958B"/>
<path d="M105.579 60.3895C105.326 59.5501 105.426 58.7246 105.454 57.9024C105.615 53.3274 106.544 48.9103 108.309 44.6924C109.104 42.8051 110.032 40.9506 111.018 39.1542C112.154 37.0873 113.454 35.1182 114.625 33.0719C115.247 31.9776 116.071 31.0514 116.901 30.1165C116.515 30.7587 116.193 31.4505 115.726 32.0327C114.907 33.0668 114.304 34.2073 113.712 35.3667C113.074 36.603 112.342 37.7829 111.662 38.9935C109.171 43.4509 107.259 48.1279 106.379 53.1804C106.032 55.1741 105.886 57.1832 105.708 59.1855C105.686 59.5914 105.624 59.9853 105.579 60.3895Z" fill="#98958B"/>
<path d="M152.52 125.216C152.686 124.629 153.224 124.509 153.656 124.314C156.03 123.212 158.518 122.446 161.098 121.992C167.244 120.895 173.388 121.218 179.538 121.977C179.703 121.994 179.864 122.055 180.016 122.112C180.047 122.119 180.056 122.182 180.086 122.247C179.595 122.348 179.112 122.221 178.63 122.188C173.937 121.816 169.244 121.619 164.547 122.106C160.717 122.509 157.022 123.423 153.493 124.973C153.256 125.076 153.025 125.17 152.79 125.251C152.722 125.268 152.64 125.23 152.52 125.216Z" fill="#98958B"/>
<path d="M212.475 90.3793C211.209 90.7606 209.962 91.0718 208.759 91.5028C205.443 92.6797 202.47 94.5059 199.537 96.4023C195.764 98.843 192.015 101.321 188.25 103.767C187.481 104.272 186.681 104.712 185.863 105.2C185.826 104.874 186.009 104.763 186.184 104.647C191.855 100.888 197.346 96.8689 203.27 93.4837C205.89 91.993 208.65 90.8896 211.614 90.3395C211.872 90.2968 212.151 90.1033 212.475 90.3793Z" fill="#98958B"/>
<path d="M108.551 78.0204C108.082 77.0165 108.144 75.9237 108.219 74.8498C108.441 71.8609 109.182 68.9973 110.316 66.2179C111.329 63.7158 112.579 61.3441 114.083 59.113C115.726 56.6866 117.396 54.2757 119.769 52.3225C119.646 52.7609 119.402 53.0109 119.162 53.2746C118.066 54.4799 117.015 55.7246 116.077 57.0722C115.215 58.3136 114.361 59.5602 113.588 60.8667C110.525 66.0056 108.727 71.5202 108.598 77.5357C108.58 77.7002 108.563 77.8646 108.551 78.0204Z" fill="#98958B"/>
<path d="M157.894 157.467C155.476 156.41 153.216 155.111 151.103 153.585C146.708 150.409 142.718 146.79 139.595 142.292C138.562 140.81 137.648 139.247 136.902 137.599C136.528 136.768 136.222 135.92 136.186 135.048C136.458 134.886 136.535 134.99 136.571 135.105C138.046 139.789 140.915 143.586 144.227 147.09C146.215 149.193 148.432 151.049 150.73 152.79C152.769 154.342 154.913 155.757 157.155 157.011C157.398 157.168 157.646 157.317 157.894 157.467Z" fill="#98958B"/>
<path d="M184.232 135.537C193.296 135.343 202.137 133.873 210.753 131.09C210.758 131.431 210.374 131.527 210.114 131.65C209.468 131.949 208.801 132.225 208.118 132.432C200.743 134.643 193.224 135.929 185.511 135.91C185.175 135.906 184.835 135.911 184.504 135.899C184.437 135.894 184.362 135.825 184.297 135.798C184.273 135.702 184.252 135.62 184.232 135.537Z" fill="#98958B"/>
<path d="M204.329 94.69C203.489 95.2925 202.625 95.8573 201.823 96.4941C198.864 98.8411 195.91 101.179 192.615 103.057C189.32 104.934 185.954 106.64 182.409 107.983C182.017 108.132 181.643 108.327 180.977 108.253C181.513 107.981 181.873 107.789 182.254 107.622C187.177 105.36 192.048 102.973 196.52 99.8916C198.006 98.8732 199.42 97.7417 200.873 96.6804C201.942 95.8895 203.04 95.1279 204.329 94.69Z" fill="#98958B"/>
<path d="M155.656 79.9593C155.133 81.1598 154.31 81.8308 153.579 82.5447C150.586 85.4894 147.427 88.2285 143.697 90.2291C140.757 91.8069 137.69 93.0524 134.411 93.7394C133.623 93.9068 132.84 94.0075 132.035 93.99C131.83 93.9831 131.614 93.9932 131.458 93.69C141.322 92.4375 148.888 87.1141 155.656 79.9593Z" fill="#98958B"/>
<path d="M76.9448 81.6034C77.4069 82.347 77.3946 83.1435 77.4404 83.94C77.5931 87.0027 77.7543 90.0705 78.277 93.0992C78.868 96.5183 79.8084 99.8212 81.7494 102.758C82.3074 103.594 82.9082 104.398 83.5262 105.27C83.1305 105.23 82.9491 104.97 82.7436 104.73C80.2733 101.86 78.7334 98.5463 77.9661 94.8581C77.2022 91.1836 76.9214 87.4614 76.9746 83.7068C76.9801 82.9994 76.953 82.3074 76.9448 81.6034Z" fill="#98958B"/>
<path d="M156.251 139.236C157.929 139.603 159.314 140.4 160.799 140.954C165.702 142.781 170.732 143.95 175.962 144.225C178.817 144.378 181.665 144.447 184.524 144.265C184.682 144.255 184.852 144.263 185.076 144.258C183.681 145.087 174.168 144.767 170.273 144.093C165.366 143.243 160.682 141.769 156.251 139.236Z" fill="#98958B"/>
<path d="M169.867 106.403C178.446 104.204 184.692 99.0432 189.084 91.3819C189.109 92.0379 188.861 92.5294 188.583 92.9918C185.274 98.5776 180.68 102.715 174.732 105.306C173.197 105.98 171.609 106.529 169.867 106.403Z" fill="#98958B"/>
<path d="M143.703 152.309C138.695 149.977 131.173 138.585 131.439 133.642C132.566 137.255 134.14 140.647 136.23 143.801C138.329 146.961 140.912 149.701 143.703 152.309Z" fill="#98958B"/>
<path d="M151.552 119.146C151.813 119.991 151.666 120.741 151.441 121.445C150.324 124.992 148.096 127.673 144.916 129.573C143.605 130.359 142.194 130.885 140.741 131.306C139.655 131.621 138.553 131.903 137.442 132.144C136.794 132.291 136.128 132.333 135.422 132.247C136.32 131.994 137.209 131.736 138.119 131.502C139.993 131.02 141.831 130.423 143.58 129.586C146.743 128.084 148.974 125.649 150.474 122.531C150.848 121.753 151.077 120.888 151.221 120.008C151.267 119.756 151.154 119.42 151.552 119.146Z" fill="#98958B"/>
<path d="M147.486 121.959C145.251 126.629 141.487 129.482 136.584 130.953C133.015 132.025 128.308 132.181 126.841 131.288C129.354 131.352 131.832 131.396 134.273 130.882C138.002 130.104 141.405 128.629 144.188 125.955C145.432 124.757 146.454 123.366 147.486 121.959Z" fill="#98958B"/>
<path d="M117.342 122.564C119.996 123.926 122.737 123.999 125.527 123.776C128.097 123.572 130.444 122.71 132.63 121.378C133.782 120.683 134.888 119.927 136.019 119.208C136.391 118.977 136.712 118.656 137.184 118.568C137.165 118.871 136.977 119.049 136.782 119.2C134.468 120.956 132.135 122.688 129.344 123.61C125.729 124.818 122.089 124.845 118.465 123.624C117.989 123.466 117.551 123.226 117.342 122.564Z" fill="#98958B"/>
<path d="M117.882 121.316C125.569 122.659 131.673 119.557 137.171 114.4C136.91 115.28 136.922 115.299 136.643 115.551C133.515 118.449 130.049 120.748 125.801 121.691C123.325 122.243 120.876 122.229 118.44 121.57C118.252 121.515 118.064 121.402 117.882 121.316Z" fill="#98958B"/>
<path d="M113.877 104.766C113.759 104.089 114.092 103.73 114.339 103.377C115.761 101.319 117.485 99.5929 119.639 98.2767C122.615 96.4642 125.856 95.5683 129.293 95.2787C129.635 95.2515 130.043 95.1352 130.421 95.6305C129.496 95.7739 128.653 95.8968 127.809 96.042C124.112 96.6876 120.696 97.9912 117.769 100.439C116.542 101.473 115.5 102.665 114.534 103.925C114.354 104.166 114.16 104.411 113.877 104.766Z" fill="#98958B"/>
<path d="M153.587 93.6649C151.113 98.5403 139.745 103.887 135.861 101.974C139.369 101.681 142.571 100.948 145.615 99.5841C148.627 98.2358 151.117 96.1662 153.587 93.6649Z" fill="#98958B"/>
<path d="M116.485 33.2341C114.334 37.7448 113.224 42.4255 112.192 47.1303C111.579 49.9546 111.006 52.7908 110.107 55.5481C109.666 56.9028 109.242 58.2677 108.502 59.5006C108.419 59.6376 108.361 59.8123 108.092 59.8721C110.236 54.9264 111.091 49.6614 112.315 44.5011C112.954 41.8088 113.676 39.1319 114.712 36.5734C115.17 35.4619 115.501 34.2511 116.485 33.2341Z" fill="#98958B"/>
<path d="M125.603 97.6187C124.284 98.3409 122.949 99.0306 121.64 99.7939C119.533 101.033 117.556 102.443 115.967 104.332C114.26 106.359 113.024 108.611 112.608 111.262C112.529 111.762 112.455 112.254 112.376 112.754C112.369 112.785 112.314 112.799 112.206 112.862C112.024 111.168 112.36 109.599 112.932 108.066C114.1 104.958 116.338 102.725 118.97 100.846C121.012 99.4047 123.202 98.2616 125.603 97.6187Z" fill="#98958B"/>
<path d="M149.306 76.5652C151.771 73.3154 154.554 70.35 156.62 66.8139C158.655 63.3292 160.338 59.6919 161.695 55.6484C161.796 56.4313 161.77 56.94 161.597 57.3835C160.89 59.2194 160.166 61.045 159.325 62.8345C158.498 64.5984 157.471 66.2303 156.522 67.9084C155.508 69.7116 154.16 71.2782 152.842 72.8517C151.758 74.1701 150.624 75.4576 149.306 76.5652Z" fill="#98958B"/>
<path d="M129.678 104.936C128.923 105.438 128.088 105.682 127.314 106.021C124.52 107.22 121.891 108.706 119.472 110.562C117.962 111.717 116.694 113.111 115.539 114.607C114.966 115.347 114.846 116.323 114.231 117.037C114.269 115.732 114.907 114.321 115.932 113.119C119.127 109.352 123.242 107.001 127.821 105.37C128.37 105.175 128.938 105.004 129.498 104.828C129.526 104.821 129.567 104.869 129.678 104.936Z" fill="#98958B"/>
<path d="M89.0469 95.4202C89.4714 99.5433 90.547 103.242 92.4501 106.669C94.0502 109.552 96.173 111.934 99.211 113.374C99.4747 113.498 99.7264 113.661 99.9747 113.81C100.009 113.83 100.019 113.871 100.043 113.909C97.8612 113.391 96.1163 112.261 94.252 110.186C92.0076 107.696 90.6644 104.734 89.7273 101.561C89.2724 100.03 88.9684 98.4605 88.8818 96.8589C88.8511 96.4444 88.7845 96.0315 89.0469 95.4202Z" fill="#98958B"/>
<path d="M141.011 156.809C146.979 162.643 154.39 165.474 162.276 167.474C162.083 167.719 161.846 167.588 161.655 167.578C161.399 167.576 161.153 167.521 160.906 167.466C158.469 167.004 156.147 166.157 153.83 165.301C152.018 164.632 150.298 163.751 148.557 162.926C147.879 162.6 147.185 162.242 146.608 161.767C145.495 160.866 144.206 160.22 143.182 159.208C142.403 158.449 141.579 157.745 141.011 156.809Z" fill="#98958B"/>
<path d="M179.106 112.804C175.534 111.904 172.129 111.327 168.667 111.077C165.178 110.834 161.744 111.334 158.11 111.855C162.551 109.757 175.437 110.32 179.106 112.804Z" fill="#98958B"/>
<path d="M108.04 99.8965C108.297 92.8738 107.934 85.933 106.246 79.0824C106.644 79.0997 106.611 79.4646 106.695 79.713C107.465 82.0395 107.847 84.4479 108.147 86.8769C108.613 90.6404 108.791 94.4173 108.365 98.1923C108.311 98.6496 108.244 99.1104 108.182 99.5625C108.146 99.6807 108.085 99.7835 108.04 99.8965Z" fill="#98958B"/>
<path d="M129.597 100.145C126.58 101.095 123.647 102.176 121.07 104.1C118.517 106.003 116.566 108.455 114.624 110.912C117.827 104.843 122.693 101.067 129.597 100.145Z" fill="#98958B"/>
<path d="M114.026 51.8547C118.442 45.2211 121.792 38.0527 124.417 30.5413C123.342 34.8127 120.136 44.3398 114.026 51.8547Z" fill="#98958B"/>
<path d="M122.449 93.1136C120.889 93.983 119.286 94.7907 117.798 95.8314C115.866 97.187 114.106 98.7398 112.789 100.699C112.095 101.738 111.615 102.906 111.327 104.143C111.239 104.521 111.249 104.97 110.92 105.285C110.47 105.026 110.648 104.69 110.694 104.38C111.057 102.07 112.141 100.111 113.731 98.433C115.955 96.0874 118.623 94.381 121.608 93.156C121.839 93.0619 122.089 93.0141 122.327 92.9474C122.36 92.932 122.426 92.9372 122.43 92.9509C122.454 92.9886 122.45 93.0331 122.449 93.1136Z" fill="#98958B"/>
<path d="M146.127 112.02C146.141 111.376 146.482 111.254 146.78 111.107C147.655 110.678 148.555 110.344 149.478 110.048C153.821 108.696 158.287 108.244 162.805 108.15C163.792 108.137 164.782 108.079 165.751 108.289C162.411 108.612 159.061 108.604 155.758 109.195C152.486 109.793 149.262 110.524 146.127 112.02Z" fill="#98958B"/>
<path d="M92.7278 112.568C90.7961 111.711 89.1541 110.526 87.7948 108.929C84.6757 105.296 82.4527 101.2 81.3913 96.5078C81.1537 95.4679 80.8973 94.4401 80.9595 93.3473C81.2843 94.591 81.568 95.845 81.9203 97.0818C83.2113 101.644 85.4001 105.72 88.6717 109.176C89.74 110.307 90.9214 111.308 92.281 112.09C92.4523 112.193 92.656 112.28 92.7278 112.568Z" fill="#98958B"/>
<path d="M132.095 140.443C131.782 140.907 131.331 140.707 130.947 140.628C129.714 140.353 128.576 139.844 127.468 139.225C124.918 137.787 122.707 135.958 120.824 133.72C120.225 133.011 119.701 132.253 119.258 131.439C119.012 130.977 118.734 130.507 118.769 129.946C119.038 129.886 119.072 130.081 119.151 130.222C120.535 132.824 122.511 134.908 124.814 136.699C125.346 137.112 125.831 137.566 126.403 137.933C128.042 138.987 129.764 139.824 131.66 140.275C131.823 140.315 131.958 140.419 132.109 140.498L132.095 140.443Z" fill="#98958B"/>
<path d="M109.007 38.8555C108.429 40.1279 107.843 41.2787 107.251 42.438C105.711 45.428 104.42 48.5088 103.888 51.8589C103.506 54.2396 103.491 56.6308 103.745 59.0204C103.778 59.2962 103.908 59.584 103.764 59.882C103.514 59.8716 103.567 59.6472 103.553 59.5342C102.795 55.2687 103.067 51.11 104.726 47.0496C105.748 44.5527 106.95 42.1638 108.282 39.8298C108.464 39.5079 108.608 39.1517 109.007 38.8555Z" fill="#98958B"/>
<path d="M119.951 45.1143C123.001 38.8723 125.221 32.3645 126.394 25.3097C126.666 26.1954 126.558 26.8993 126.434 27.5707C125.769 31.1212 124.916 34.6167 123.507 37.9527C122.903 39.3844 122.33 40.823 121.701 42.2392C121.259 43.2667 120.626 44.2033 119.951 45.1143Z" fill="#98958B"/>
<path d="M114.915 117.972C120.414 117.78 124.803 115.069 129.147 112.202C129.171 112.531 129.005 112.652 128.842 112.787C126.441 114.631 123.969 116.362 121.104 117.426C119.48 118.035 117.81 118.429 116.064 118.465C115.655 118.487 115.244 118.531 114.915 117.972Z" fill="#98958B"/>
<path d="M154.667 127.577C161.737 125.428 168.967 125.378 176.238 126.075C175.234 126.311 174.211 126.21 173.197 126.171C168.742 126.024 164.299 126.069 159.872 126.708C158.132 126.967 156.393 127.263 154.667 127.577Z" fill="#98958B"/>
<path d="M190.18 94.9883C192.856 91.0379 200.588 87.6314 204.486 88.0855C204.07 88.4296 203.667 88.4208 203.307 88.496C200.395 89.0769 197.628 90.0365 195.065 91.5495C193.362 92.5421 191.811 93.7661 190.18 94.9883Z" fill="#98958B"/>
<path d="M159.542 81.3265C162.014 75.1922 165.986 70.3073 171.554 66.7198C166.487 70.7135 162.566 75.6515 159.542 81.3265Z" fill="#98958B"/>
<path d="M202.352 101.472C196.912 105.486 191.302 109.142 184.435 110.178C187.611 109.197 190.749 108.123 193.689 106.545C196.665 104.965 199.477 103.136 202.352 101.472Z" fill="#98958B"/>
<path d="M151.937 91.6019C151.685 92.2544 151.214 92.4957 150.825 92.7747C146.711 95.7445 142.193 97.7961 137.158 98.5935C136.283 98.7319 135.406 98.8342 134.52 98.6984C134.308 98.6641 134.102 98.6571 133.902 98.3504C140.648 98.1379 146.455 95.5097 151.937 91.6019Z" fill="#98958B"/>
<path d="M103.403 114.192C96.9351 111.227 92.9855 103.681 92.8833 98.9829C93.0047 99.3821 93.1399 99.7778 93.2476 100.18C94.2924 103.814 95.8838 107.158 98.4243 109.989C99.3145 110.99 100.297 111.895 101.432 112.623C102.145 113.086 102.65 113.797 103.403 114.192Z" fill="#98958B"/>
<path d="M184.385 167.075C183.821 166.888 183.587 166.386 183.193 166.091C181.364 164.713 179.282 163.835 177.184 162.983C174.317 161.82 171.342 160.954 168.391 160.067C168.116 159.983 167.867 159.834 167.626 159.654C169.181 159.819 170.642 160.335 172.122 160.723C174.59 161.366 177.003 162.198 179.32 163.287C180.755 163.963 182.166 164.717 183.424 165.706C183.859 166.049 184.214 166.448 184.385 167.075Z" fill="#98958B"/>
<path d="M174.225 129.911C180.727 130.24 187.222 129.784 193.824 129.753C191.838 130.459 176.991 130.699 174.225 129.911Z" fill="#98958B"/>
<path d="M160.578 46.1222C158.5 50.7459 154.503 56.489 149.838 61.0738C150.142 60.0445 150.909 59.4454 151.495 58.7605C153.502 56.3891 155.403 53.9424 157.114 51.3465C158.262 49.5896 159.402 47.8276 160.578 46.1222Z" fill="#98958B"/>
<path d="M129.877 126.621C136.595 126.299 141.511 122.809 145.559 117.796C143.465 122.736 134.898 127.61 129.877 126.621Z" fill="#98958B"/>
<path d="M87.5354 82.0108C85.1663 78.8751 84.3339 68.1572 86.1006 63.1599C85.2034 69.5417 85.3014 75.8571 87.5354 82.0108Z" fill="#98958B"/>
<path d="M107.28 114.528C104.594 113.276 102.434 111.617 100.802 109.309C99.0666 106.845 97.8518 104.135 96.9625 101.27C96.93 101.169 96.9403 101.036 96.9268 100.806C97.3052 101.068 97.341 101.416 97.4487 101.702C98.4683 104.33 99.6455 106.89 101.328 109.17C102.455 110.709 103.786 112.022 105.43 113.009C106.081 113.4 106.697 113.829 107.28 114.528Z" fill="#98958B"/>
<path d="M125.353 24.0555C124.967 24.6977 124.59 25.3449 124.196 25.9819C122.787 28.2697 121.684 30.7065 120.681 33.1914C119.993 34.8988 119.271 36.5857 118.541 38.2674C118.399 38.6013 118.249 38.9661 117.874 39.2417C118.787 36.4809 119.85 33.8573 120.987 31.2663C121.781 29.4596 122.587 27.6718 123.614 25.9817C124.061 25.2368 124.568 24.5279 125.353 24.0555Z" fill="#98958B"/>
<path d="M161.436 51.0182C162.164 49.65 162.85 48.4308 163.743 47.3127C164.761 46.0251 165.856 44.842 167.133 43.8029C167.779 43.2705 168.474 42.7912 169.228 42.4285C169.638 42.2317 170.074 42.0863 170.623 42.299C169.951 42.6995 169.238 43.052 168.602 43.509C167.891 44.014 167.191 44.56 166.577 45.1935C166.001 45.803 165.372 46.3457 164.814 46.9655C164.234 47.6195 163.662 48.3009 163.172 49.0201C162.7 49.7273 162.21 50.3883 161.436 51.0182Z" fill="#98958B"/>
<path d="M143.628 114.784C142.688 117.959 137.136 122.78 131.803 123.899C133.282 123.086 134.913 122.563 136.337 121.647C137.747 120.735 139.078 119.74 140.31 118.581C141.542 117.422 142.526 116.056 143.628 114.784Z" fill="#98958B"/>
<path d="M137.797 126.741C137.783 127.211 137.497 127.26 137.291 127.37C134.32 129.057 131.101 129.955 127.718 130.311C126.797 130.41 125.877 130.312 124.962 130.147C124.741 130.108 124.577 130.032 124.38 129.739C129.181 130.048 133.557 128.797 137.797 126.741Z" fill="#98958B"/>
<path d="M101.937 95.7418C100.993 90.2344 99.966 84.7475 98.9752 79.259C99.2853 79.1307 99.2852 79.3636 99.3109 79.4956C100.295 84.3161 101.315 89.1349 102.014 94.0049C102.09 94.5754 102.167 95.1458 101.937 95.7418Z" fill="#98958B"/>
<path d="M71.8613 80.6002C71.8983 85.6789 71.8101 90.7524 73.207 95.9722C71.3465 93.0954 71.1003 85.1064 71.8613 80.6002Z" fill="#98958B"/>
<path d="M118.913 108.175C120.367 105.309 126.697 101.713 131.47 101.119C131.12 101.527 130.721 101.59 130.382 101.689C128.933 102.123 127.528 102.678 126.138 103.264C123.397 104.414 121.103 106.217 118.913 108.175Z" fill="#98958B"/>
<path d="M173.268 135.5C167.308 135.415 161.331 135.355 155.505 133.825C161.381 134.768 167.325 135.076 173.268 135.5Z" fill="#98958B"/>
<path d="M192.988 79.2566C191.596 84.6772 188.532 89.023 184.91 93.0345C185.394 91.7055 186.462 90.7623 187.223 89.6116C187.614 89.0191 188.081 88.4729 188.447 87.865C189.631 85.9318 190.846 84.0054 191.726 81.9007C192.013 81.2105 192.273 80.5049 192.534 79.7994C192.616 79.6041 192.642 79.3866 192.988 79.2566Z" fill="#98958B"/>
<path d="M134.854 134.027C140.474 134 145.177 131.99 149.04 127.751C148.854 128.35 148.58 128.768 148.212 129.129C144.947 132.353 141.084 134.227 136.435 134.324C135.905 134.332 135.364 134.38 134.854 134.027Z" fill="#98958B"/>
<path d="M122.106 114.555C125.939 112.267 129.674 109.908 132.373 106.229C132.634 106.63 132.445 106.866 132.27 107.099C131.094 108.746 129.689 110.174 128.048 111.355C126.202 112.682 124.244 113.789 122.106 114.555Z" fill="#98958B"/>
<path d="M174.631 62.102C167.576 65.3907 166.78 66.9867 163.533 69.7548C163.532 69.4277 163.729 69.1965 163.921 68.9739C164.104 68.7462 164.317 68.5476 164.526 68.3353C166.81 65.9675 169.308 63.903 172.382 62.6267C173.1 62.3239 173.847 62.1084 174.631 62.102Z" fill="#98958B"/>
<path d="M87.0295 104.403C84.5727 101.937 82.4511 93.4624 83.1514 90.6091C83.7383 95.4123 84.7055 100.106 87.0295 104.403Z" fill="#98958B"/>
<path d="M126.894 44.2046C129.552 40.1858 133.142 37.2739 137.603 35.433C135.635 36.6739 133.654 37.896 131.882 39.4299C130.134 40.9432 128.537 42.5936 126.894 44.2046Z" fill="#98958B"/>
<path d="M170.811 46.2916C169.557 48.9991 168.018 51.5231 166.182 53.8808C165.332 54.9664 164.499 56.0622 163.586 57.0981C163.178 57.5638 162.765 58.0963 161.79 58.1866C163.749 56.3222 165.103 54.2811 166.69 52.4148C168.292 50.5229 169.396 48.2967 170.811 46.2916Z" fill="#98958B"/>
<path d="M99.7718 48.3144C101.081 43.2638 104.021 39.2622 107.787 35.8041C104.43 39.5314 101.682 43.6598 99.7718 48.3144Z" fill="#98958B"/>
<path d="M98.888 89.4708C97.0681 84.1018 95.9403 78.5892 95.5269 72.9348C96.1524 75.6757 96.4868 78.4747 97.0576 81.2293C97.6318 83.9976 98.3395 86.718 98.888 89.4708Z" fill="#98958B"/>
<path d="M103.822 84.4767C104.856 89.1756 105.26 93.9153 104.144 98.7793C103.743 98.4571 103.86 98.166 103.898 97.9091C104.584 93.509 104.404 89.1137 103.79 84.725C103.783 84.6394 103.812 84.552 103.822 84.4767Z" fill="#98958B"/>
<path d="M101.137 99.304C102.138 99.6368 102.775 100.206 103.336 100.823C105.83 103.556 107.54 106.762 109.097 110.318C108.494 110.061 108.395 109.664 108.232 109.333C107.105 107.118 105.878 104.971 104.402 102.966C103.632 101.921 102.886 100.855 101.817 100.073C101.593 99.9037 101.425 99.6399 101.137 99.304Z" fill="#98958B"/>
<path d="M110.783 46.4698C109.728 51.8718 108.784 57.3045 106.64 62.425C108.278 57.1758 109.333 51.7739 110.783 46.4698Z" fill="#98958B"/>
<path d="M99.6854 108.86C96.9697 106.844 94.3676 100.294 94.7686 96.5039C95.1347 97.3879 95.0624 98.0902 95.2368 98.7309C95.4403 99.4589 95.5701 100.213 95.7787 100.932C95.972 101.619 96.22 102.292 96.4731 102.957C96.7263 103.622 97.0069 104.28 97.32 104.922C97.6572 105.602 98.032 106.259 98.4171 106.898C98.7782 107.499 99.1736 108.063 99.6854 108.86Z" fill="#98958B"/>
<path d="M129.969 133.877C125.863 134.37 119.766 130.148 118.342 127.301C124.685 133.034 124.088 132.069 129.969 133.877Z" fill="#98958B"/>
<path d="M140.962 106.517C141.903 105.824 142.949 105.672 143.866 105.233C144.777 104.801 145.682 104.343 146.522 103.798C147.404 103.222 148.261 102.629 149.14 102.039C149.952 101.501 150.701 100.856 151.679 100.372C149.074 103.409 143.319 106.745 140.962 106.517Z" fill="#98958B"/>
<path d="M127.736 91.1396C122.981 90.9283 118.926 92.5005 115.329 95.5015C117.261 92.4209 125.426 89.4376 127.736 91.1396Z" fill="#98958B"/>
<path d="M136.051 39.7443C139.115 36.9127 142.503 34.6482 146.698 33.8126C144.94 34.8189 142.992 35.4432 141.238 36.4632C139.473 37.5003 137.804 38.6883 136.051 39.7443Z" fill="#98958B"/>
<path d="M165.761 118.069C161.151 118.528 156.683 119.526 152.493 121.634C154.445 119.684 161.043 117.892 165.761 118.069Z" fill="#98958B"/>
<path d="M124.022 119.085C123.419 119.003 122.884 119.311 122.331 119.456C120.687 119.866 119.025 120.033 117.335 119.822C117.17 119.805 116.997 119.782 116.84 119.734C116.769 119.715 116.708 119.643 116.579 119.566C117.715 119.538 118.801 119.572 119.878 119.486C122.268 119.29 124.45 118.41 126.57 117.365C127.399 116.954 128.213 116.511 129.03 116.081C129.236 115.972 129.407 115.784 129.674 115.862C129.679 116.203 129.362 116.246 129.165 116.361C127.743 117.254 126.27 118.058 124.699 118.676C124.435 118.785 124.123 118.82 123.962 119.107L124.022 119.085Z" fill="#98958B"/>
<path d="M129.88 43.6566C132.473 40.4257 135.567 37.8339 139.441 36.2342C137.786 37.4187 136.011 38.4147 134.445 39.7226C132.894 41.0048 131.463 42.4173 129.88 43.6566Z" fill="#98958B"/>
<path d="M195.881 140.624C192.004 142.442 187.867 142.754 183.64 142.673C183.931 142.615 184.215 142.529 184.5 142.502C186.792 142.294 189.099 142.119 191.376 141.704C192.912 141.415 194.372 140.905 195.881 140.624Z" fill="#98958B"/>
<path d="M205.582 88.6854C201.608 89.7352 197.969 91.5456 194.268 93.6336C195.594 91.8905 201.92 89.1187 205.582 88.6854Z" fill="#98958B"/>
<path d="M172.506 50.2579C171.369 53.7808 169.136 56.5288 166.414 58.9255C168.63 56.1672 170.792 53.3642 172.506 50.2579Z" fill="#98958B"/>
<path d="M98.0893 97.7643C98.973 98.0388 99.5293 98.7225 100.101 99.3805C101.912 101.447 103.144 103.877 104.541 106.323C104.075 106.323 104.012 105.982 103.897 105.785C103.077 104.512 102.285 103.232 101.492 101.952C100.541 100.414 99.3973 99.0393 98.0893 97.7643Z" fill="#98958B"/>
<path d="M167.997 55.379C169.379 52.6322 171.271 50.1803 172.507 47.3461C171.863 50.5129 169.898 52.9322 167.997 55.379Z" fill="#98958B"/>
<path d="M185.99 110.752C188.903 110.789 191.451 110.059 193.907 108.936C192.199 110.636 187.743 111.712 185.99 110.752Z" fill="#98958B"/>
<path d="M145.226 114.974C144.105 117.714 142.012 119.569 139.651 121.191C141.603 119.183 143.738 117.355 145.226 114.974Z" fill="#98958B"/>
<path d="M184.335 168.245C181.947 166.963 179.442 166.168 177.068 165.057C177.964 165.118 178.779 165.409 179.598 165.714C180.417 166.02 181.302 166.214 182.047 166.661C182.809 167.119 183.862 167.169 184.335 168.245Z" fill="#98958B"/>
<path d="M168.772 63.0103C166.526 64.4806 164.745 66.417 162.865 68.2472C164.381 65.9766 166.221 64.0762 168.772 63.0103Z" fill="#98958B"/>
<path d="M123.959 119.094C124.618 119.257 125.158 118.882 125.73 118.666C126.691 118.288 127.599 117.785 128.518 117.323C126.715 118.967 124.488 119.61 122.162 120.03C122.643 119.422 123.561 119.717 124.022 119.085L123.959 119.094Z" fill="#98958B"/>
<path d="M134.992 138.956C133.813 137.642 132.462 134.944 132.331 133.804C132.364 133.789 132.401 133.765 132.442 133.755C132.478 133.753 132.528 133.748 132.554 133.763C132.612 133.822 132.679 133.885 132.71 133.95C133.433 135.538 134.149 137.121 134.992 138.956Z" fill="#98958B"/>
<path d="M84.4131 91.9032C84.741 93.9177 85.0929 95.9117 85.4807 97.9039C84.7023 95.98 84.2785 93.9894 84.4131 91.9032Z" fill="#98958B"/>
<path d="M83.1698 164.965C83.3904 165.762 83.0647 166.09 82.8505 166.428C82.0636 167.68 81.484 169.032 80.8308 170.353C80.5393 170.935 80.5218 171.565 80.5044 172.196C80.3593 178.179 79.6902 184.103 78.329 189.938C78.2089 190.449 78.2309 191.033 77.6499 191.593C78.9808 184.528 79.9074 177.593 79.8441 170.541C79.4297 170.164 79.0428 169.78 78.6353 169.43C78.2398 169.099 77.6695 168.943 77.3786 168.244C78.3823 168.416 78.9318 169.131 79.8257 169.446C79.8254 166.673 79.6263 163.979 79.2953 161.31C78.6618 160.754 78.0369 160.263 77.3571 159.843C76.6944 159.433 75.8362 159.349 75.2902 158.648C76.1398 158.494 76.1398 158.494 77.2323 159.139C77.8402 159.504 78.4481 159.869 79.1759 160.306C78.92 158.113 78.575 156.089 78.1152 154.1C76.867 153.21 75.3922 152.988 74.0805 152.34C75.439 152.038 76.5588 152.85 77.7919 153.183C77.919 152.584 77.628 152.234 77.1433 151.955C76.0217 151.281 74.8778 150.664 73.5933 150.358C73.2371 150.272 72.8928 150.147 72.4989 150.027C73.2734 149.455 73.3967 149.483 77.2499 151.098C77.3717 150.799 77.2228 150.523 77.1459 150.244C76.1575 146.749 74.8454 143.386 73.1923 140.144C72.7765 139.323 72.1755 138.869 71.3226 138.602C69.7487 138.099 68.1267 137.929 66.4944 137.717C66.0508 137.66 65.566 137.73 65.1671 137.386C66.3458 136.917 68.1305 137.127 72.0268 138.186C70.6662 135.796 69.0537 133.65 67.2408 131.664C66.6793 131.047 66.0166 130.521 65.4465 129.899C65.0699 129.498 64.6332 129.352 64.1159 129.321C62.672 129.223 61.2588 129.423 59.8507 129.672C58.9925 129.821 58.1359 129.947 57.2743 130.024C58.4223 129.257 59.7294 128.982 63.8165 128.617C63.8132 128.312 63.5409 128.242 63.3611 128.134C61.6367 127.086 59.945 125.965 58.1537 125.029C56.0526 123.93 53.737 123.46 51.4214 123.048C51.0412 122.982 50.6728 123.111 50.3062 123.217C48.9152 123.593 47.6491 124.265 46.4189 124.994C45.6341 125.467 44.8374 125.92 43.8899 126.47C44.7572 125.278 46.2136 124.289 49.0354 122.908C48.8523 122.553 48.5097 122.697 48.2511 122.681C44.9573 122.462 41.6907 122.76 38.4377 123.23C37.7988 123.324 37.2317 123.589 36.7108 123.952C35.4788 124.82 34.2383 125.682 32.8212 126.684C33.6132 125.423 34.8587 124.901 35.5461 123.835C33.5913 124.606 32.21 126.188 30.4691 127.263C31.3108 126.056 32.4982 125.185 33.5282 124.091C33.052 124.166 32.5689 124.213 32.1081 124.321C30.7085 124.634 29.3244 124.979 27.9214 125.278C26.9552 125.49 26.0798 125.862 25.307 126.469C24.6781 126.954 24.0475 127.46 23.4067 127.926C23.0554 128.181 22.7623 128.553 22.2004 128.635C22.7935 127.686 23.789 127.212 24.4334 126.352C23.1985 126.275 20.0721 127.077 18.388 127.824C16.5 128.659 14.6839 129.607 12.8489 130.567C13.8807 129.16 15.5373 128.652 16.956 127.803C13.4941 128.077 10.0612 128.788 6.61706 127.849C10.1694 128.2 13.6605 127.723 17.3949 127.053C15.494 126.319 13.687 126.049 12.1236 125.005C12.4287 124.652 12.6787 124.838 12.9253 124.951C14.458 125.638 16.0267 126.208 17.6606 126.63C18.1966 126.766 18.7293 126.829 19.2724 126.701C21.0797 126.272 22.8732 125.846 24.6805 125.417C24.7902 125.39 24.8998 125.304 25.1568 125.167C23.3536 124.212 21.4252 123.66 20.0796 122.176C20.1259 122.099 20.167 122.03 20.2133 121.953C20.65 122.216 21.0952 122.483 21.5318 122.745C22.7219 123.46 23.8812 124.226 25.1982 124.691C25.5561 124.813 25.9243 125.034 26.2789 124.968C27.4523 124.74 28.6411 124.546 29.9894 124.085C27.7973 123.293 25.8073 122.552 24.1036 121.238C24.9993 121.531 25.8933 121.846 26.7118 122.326C27.7273 122.925 28.8404 123.302 29.9416 123.719C30.6951 123.997 31.4026 123.944 32.2438 123.552C29.8805 122.54 27.5377 121.727 25.274 120.24C26.0979 120.303 26.6116 120.554 27.1339 120.809C28.8361 121.622 30.5435 122.426 32.328 123.043C32.8383 123.222 33.3658 123.411 33.9242 123.315C35.8257 123.001 37.7323 122.678 39.8873 122.329C38.6732 121.577 37.5738 121.021 36.6235 120.276C35.6937 119.554 34.6081 118.937 34.0126 117.659C35.1772 118.067 35.8362 118.929 36.6375 119.574C37.8018 120.506 39.0827 121.205 40.3567 121.936C40.7557 122.164 41.2388 122.232 41.6995 122.183C44.2964 121.914 46.8949 121.855 49.6919 122.125C47.7658 120.328 45.7247 118.857 44.7769 116.458C45.2276 116.193 45.3182 116.527 45.4294 116.71C46.4375 118.33 47.7387 119.694 49.1649 120.947C50.0877 121.757 51.0757 122.421 52.3568 122.596C53.3896 122.739 54.3984 123.076 55.4123 123.348C55.6538 123.411 55.8815 123.536 56.1351 123.386C54.4192 119.046 54.2021 118.088 54.6669 116.83C55.0369 116.854 54.9871 117.15 55.0058 117.371C55.1915 119.37 55.845 121.231 56.6269 123.052C56.839 123.552 57.154 123.881 57.6335 124.111C58.8819 124.709 60.1835 125.2 61.3803 126.059C61.5947 125.547 61.3962 125.159 61.309 124.781C60.8681 122.722 61.0575 120.68 61.5141 118.659C61.5759 118.382 61.6531 118.078 61.9787 117.924C62.2028 118.444 61.9508 118.921 61.8735 119.399C61.523 121.496 61.5271 123.584 61.9389 125.672C62.0739 126.359 62.3683 126.838 63.1527 127.007C62.8851 124.213 62.6964 121.443 63.7563 118.689C64.2802 119.039 64.0454 119.41 63.9716 119.669C63.4191 121.598 63.3873 123.571 63.4943 125.546C63.518 126.049 63.6411 126.543 63.7008 127.045C63.7844 127.759 64.1541 128.191 64.8683 128.34C64.3571 123.023 64.5226 120.711 65.5167 119.502C65.7477 119.99 65.5437 120.427 65.4475 120.859C64.9205 123.327 65.0615 125.788 65.3806 128.263C65.4386 128.729 65.5822 129.13 65.9538 129.481C67.5974 130.993 69.0491 132.669 70.4186 134.424C70.4596 134.472 70.5676 134.466 70.7251 134.514C71.0006 131.534 71.7591 128.681 72.9868 125.958C73.1171 125.663 73.2286 125.323 73.5936 125.181C73.9189 125.376 73.7355 125.604 73.6292 125.82C72.573 128.121 71.8712 130.531 71.4281 133.014C71.3096 133.677 71.2973 134.357 71.237 135.02C71.2008 135.371 71.2761 135.673 71.4815 135.971C72.6009 137.657 73.5712 139.416 74.5381 141.337C75.2682 140.354 75.3322 139.181 75.8893 138.234C76.467 137.253 76.8376 136.17 77.4495 135.21C78.2501 133.955 79.0007 133.054 79.7529 132.655C79.3636 133.575 78.8357 134.26 78.3506 134.97C76.9279 137.029 75.9162 139.275 75.0895 141.622C74.9797 141.94 74.9676 142.271 75.1027 142.608C75.5955 143.766 76.0608 144.931 76.5364 146.079C76.9355 146.074 76.9356 145.783 76.9888 145.559C77.5552 143.219 78.4522 141.008 79.6008 138.902C79.7997 138.532 79.9163 138.125 80.0895 137.739C80.3656 137.124 80.477 137.017 81.2069 136.616C80.449 138.246 79.7151 139.856 78.9607 141.442C78.1548 143.113 77.6024 144.867 77.1373 146.65C76.9468 147.374 77.0716 148.02 77.6005 148.827C78.5033 144.977 79.9369 141.562 81.7833 138.314C81.8707 138.168 81.9667 138.028 82.2031 138.042C82.448 138.177 82.2766 138.365 82.196 138.538C81.4827 140.056 80.7386 141.566 80.051 143.099C79.1113 145.167 78.4251 147.319 77.9701 149.55C77.8808 150.009 77.8994 150.463 78.0208 150.921C78.5269 152.832 78.9919 154.754 79.342 156.887C80.0224 156.026 80.4579 155.204 80.8505 154.356C81.2346 153.503 81.6068 152.632 82.2152 151.949C82.8424 151.253 83.1512 150.274 84.0678 149.834C83.8533 150.579 83.4471 151.197 83.0237 151.805C81.9027 153.439 80.9872 155.196 79.986 156.901C79.4494 157.814 79.5689 158.759 79.8732 159.863C81.1712 157.159 82.2876 154.485 84.4092 152.253C84.4174 153.073 84.0369 153.59 83.6632 154.077C82.1207 156.063 81.2031 158.366 80.1298 160.599C80.0081 160.841 79.9943 161.077 80.0147 161.334C80.2207 163.881 80.4216 166.437 80.6532 169.058C81.4983 167.748 82.2852 166.438 83.1698 164.965Z" fill="#98958B"/>
<path d="M35.8551 257.179C36.2716 256.602 36.7788 256.243 37.2774 255.878C42.6698 251.847 48.1906 248.009 54.0571 244.682C54.9617 244.166 55.5342 243.309 56.0691 242.477C57.2347 240.672 58.3318 238.826 59.3776 236.95C59.9399 235.936 60.3344 234.833 60.8848 233.8C60.6697 235.71 59.7817 237.344 58.7977 238.943C57.8291 240.517 57.0147 242.183 55.7808 243.597C57.5111 242.947 59.1113 242.184 60.0148 240.408C60.6269 239.215 61.6106 238.256 62.2843 237.076C63.5512 234.889 64.6229 232.62 65.5575 230.269C65.6913 229.93 65.8216 229.577 66.3665 229.194C64.7233 233.811 62.7343 237.976 59.3633 241.706C60.3774 241.453 61.073 241.207 61.5546 240.657C62.0756 240.062 62.6308 239.486 63.0269 238.769C63.6869 237.592 64.3897 236.442 65.1097 235.301C66.1588 233.613 66.8311 231.756 67.608 229.939C68.0504 228.912 68.2822 227.77 69.1048 226.924C67.5849 231.685 65.5854 236.216 62.5465 240.286C62.9131 240.122 63.2747 239.966 63.6327 239.797C65.4265 238.964 67.1895 238.065 69.0261 237.316C70.705 236.635 71.8584 235.394 72.9228 234.029C74.6384 231.832 76.0167 229.421 77.4293 227.031C78.439 225.33 79.2638 223.53 80.092 221.744C80.4898 220.888 81.0092 220.082 81.4344 219.218C81.2623 220.804 80.4635 222.154 79.7794 223.526C79.073 224.954 78.4607 226.438 77.5814 227.786C76.7277 229.091 76.0059 230.487 75.1146 231.757C74.1993 233.048 73.356 234.394 72.4012 235.731C73.2356 235.37 74.0665 234.996 74.9008 234.635C76.3656 234 77.8065 233.269 79.3072 232.749C81.3973 232.024 83.0611 230.728 84.624 229.232C88.0051 226.008 90.578 222.171 92.7674 218.08C93.3914 216.905 94.0206 215.722 94.6635 214.535C94.7712 215.054 94.6048 215.525 94.3733 215.969C93.4201 217.749 92.5491 219.568 91.5136 221.311C89.5045 224.695 87.0536 227.708 84.1764 230.384C84.065 230.492 83.8732 230.54 83.8936 230.855C84.8735 230.465 85.8415 230.115 86.7906 229.718C89.9721 228.378 93.1415 227.019 96.3281 225.671C97.3612 225.232 98.1683 224.528 98.9001 223.698C100.922 221.417 102.518 218.857 104.039 216.228C105.073 214.449 106.127 212.694 106.868 210.471C107.041 211.367 106.722 211.898 106.536 212.439C105.874 214.278 104.791 215.888 103.819 217.564C102.544 219.746 101.248 221.904 99.4877 223.748C99.4003 223.835 99.3762 223.972 99.3179 224.088C100.457 223.899 101.069 223.52 101.972 222.502C104.412 219.738 106.235 216.569 108.037 213.375C108.467 212.62 108.709 211.752 109.045 210.94C109.137 210.727 109.155 210.447 109.455 210.394C109.448 212.441 106.335 217.992 102.619 222.588C102.958 222.663 103.179 222.47 103.404 222.348C106.075 221.005 108.725 219.638 111.417 218.318C112.325 217.873 113.021 217.219 113.574 216.433C115.129 214.233 116.453 211.894 117.372 209.335C117.538 208.865 117.861 208.464 117.895 207.669C118.133 208.709 117.944 209.178 117.253 210.93C116.835 211.995 116.205 212.946 115.826 214.023C115.454 215.069 114.531 215.773 113.925 216.994C114.886 216.499 115.632 216.131 116.37 215.736C117.744 215 119.098 214.24 120.472 213.504C121.267 213.073 121.87 212.457 122.355 211.688C123.375 210.087 124.162 208.369 124.893 206.629C125.008 206.361 125.097 206.076 125.374 205.905C125.485 206.845 125.341 207.202 122.862 211.969C123.225 211.966 123.448 211.75 123.702 211.6C125.622 210.458 127.389 209.107 129.123 207.714C129.481 207.428 129.807 207.099 130.435 206.906C129.745 207.901 128.91 208.553 128.124 209.223C127.298 209.938 126.41 210.582 125.511 211.207C124.625 211.828 123.698 212.401 122.807 213.148C123.264 213.084 123.721 213.021 124.187 212.963C125.232 212.834 126.277 212.762 127.341 212.853C127.781 212.896 128.278 212.845 128.622 213.262C128.462 213.585 128.194 213.412 127.983 213.414C127.101 213.408 126.215 213.331 125.335 213.361C122.978 213.425 120.768 213.962 118.755 215.258C117.84 215.85 116.832 216.305 115.881 216.841C115.638 216.974 115.304 217.006 115.2 217.433C116.589 217.254 117.954 217.153 119.328 217.175C120.84 217.198 122.344 217.332 123.837 217.658C124.291 217.756 124.747 217.832 125.046 218.244C124.786 218.542 124.514 218.356 124.231 218.302C121.073 217.664 117.894 217.525 114.701 218.03C114.079 218.135 113.45 218.27 112.864 218.489C112.2 218.742 111.585 219.106 110.976 219.615C111.221 219.576 111.48 219.533 111.725 219.494C115.151 218.93 118.585 218.779 122.024 219.26C122.756 219.362 122.764 219.367 123.437 219.818C122.872 220.003 122.384 219.826 121.913 219.776C117.949 219.294 114.025 219.407 110.109 220.224C109.23 220.407 108.415 220.698 107.622 221.107C105.97 221.956 104.3 222.758 102.65 223.585C102.444 223.694 102.247 223.809 102.103 224.107C102.543 224.092 102.982 224.099 103.419 224.07C107.829 223.806 112.14 224.31 116.372 225.547C117.008 225.731 117.602 225.983 118.092 226.545C117.718 226.449 117.338 226.384 116.966 226.265C111.686 224.504 106.276 224.201 100.775 224.707C100.356 224.747 99.9513 224.877 99.5658 225.053C98.1489 225.705 96.7287 226.343 95.2707 227.005C95.4794 227.433 95.8632 227.279 96.1492 227.288C100.27 227.526 104.314 228.243 108.253 229.502C109.652 229.946 111.05 230.413 112.3 231.222C112.526 231.369 112.865 231.445 112.836 231.823C112.731 231.959 112.609 231.909 112.507 231.847C109.743 230.164 106.662 229.338 103.548 228.645C100.964 228.06 98.3363 227.74 95.7003 227.531C94.5202 227.44 93.4718 227.672 92.4917 228.295C92.6492 228.634 92.9558 228.492 93.1665 228.491C98.8087 228.583 104.246 229.752 109.528 231.666C110.273 231.939 110.987 232.321 111.705 232.659C111.96 232.777 112.212 232.94 112.306 233.404C111.722 233.193 111.211 233.073 110.754 232.845C107.922 231.412 104.861 230.668 101.792 229.978C98.5909 229.256 95.328 228.927 92.0376 228.838C91.3935 228.824 90.7786 228.897 90.208 229.207C90.2285 229.348 90.2575 229.493 90.2866 229.639C89.586 229.602 88.9368 229.713 88.2944 229.968C85.6851 231.034 83.0554 232.076 80.4513 233.133C80.28 233.205 80.0624 233.238 79.9252 233.563C86.7184 233.659 93.3298 234.484 99.6028 237.134C101.026 237.732 102.471 238.332 103.745 239.237C103.957 239.388 104.29 239.495 104.254 239.846C104.144 239.99 104.01 239.979 103.908 239.917C98.9948 236.885 93.5966 235.32 87.9256 234.559C85.1321 234.186 82.3316 233.96 79.5002 233.96C78.8596 233.96 78.2395 234.042 77.6553 234.297C75.1951 235.406 72.7434 236.519 70.3003 237.638C70.0913 237.734 69.8172 237.803 69.6731 238.217C72.5936 238.165 75.4522 238.449 78.2679 238.999C81.0528 239.542 83.8566 240.014 86.4235 241.346C86.2692 241.719 86.0689 241.587 85.8907 241.515C82.0837 240.114 78.1359 239.374 74.1246 238.875C72.4563 238.666 70.7657 238.629 69.0888 238.647C68.318 238.65 67.5968 238.822 66.9064 239.177C65.9503 239.663 64.9669 240.097 64.0177 240.669C65.631 241.125 67.3543 240.914 68.8492 241.742C66.6002 241.684 64.3808 240.782 62.1074 241.502C63.3268 241.838 64.6356 241.599 65.884 242.198C65.5019 242.388 65.2159 242.321 64.9264 242.298C64.4674 242.267 64.0032 242.245 63.5459 242.191C61.78 241.97 60.1989 242.371 58.5867 243.174C52.6878 246.109 47.2476 249.773 41.8468 253.508C40.4315 254.487 38.9991 255.456 37.5633 256.411C37.0372 256.724 36.5335 257.039 35.8551 257.179Z" fill="#98958B"/>
<path d="M90.9718 229.351C97.8932 230.048 104.631 230.798 110.793 234.371C110.33 234.734 110.13 234.544 109.924 234.42C106.592 232.442 102.922 231.472 99.1536 230.782C96.6359 230.318 94.1113 229.944 91.5523 229.723C91.3828 229.714 91.2149 229.742 90.9718 229.351Z" fill="#98958B"/>
</g>
</svg>
